<svg xmlns="http://www.w3.org/2000/svg" width="1003.67" height="595.292"><path d="M231.316 556.271l16.12-5.113a54.561 54.561 0 00-.389-26.249c-6.476 14.399-25.475 17.927-36.3 29.42a32.819 32.819 0 00-8.395 27.179l-3.391 11.504a54.994 54.994 0 0040.024-22.768 53.12 53.12 0 006.224-11.783c-6.874-.688-13.893-2.19-13.893-2.19zm571.227 0l-16.12-5.113a54.561 54.561 0 01.389-26.249c6.476 14.399 25.475 17.927 36.3 29.42a32.819 32.819 0 018.395 27.179l3.391 11.504a54.994 54.994 0 01-40.024-22.768 53.12 53.12 0 01-6.224-11.783c6.874-.688 13.893-2.19 13.893-2.19z" fill="#f2f2f2"/><path d="M214.093 534.999l12.146-11.765a54.561 54.561 0 00-12.054-23.321c.626 15.775-14.806 27.406-19.37 42.52a32.819 32.819 0 004.608 28.07l2.095 11.81a54.994 54.994 0 0025.67-38.228 53.12 53.12 0 00.316-13.322c-6.46 2.45-13.411 4.236-13.411 4.236z" fill="#f2f2f2"/><path d="M246.566 315.95a9.157 9.157 0 01-10.365-9.473l-58.547-59.404 16.344-11.378 52.41 61.97a9.207 9.207 0 01.158 18.285z" fill="#ffb6b6"/><path d="M159.642 221.378s-4.15 2.487 2.757 10.06c5.53 6.063 29.657 35.214 39.287 41.3a7.194 7.194 0 002.828 8.355l14.807-18.478c-.846-5.298-4.418-5.027-6.425-4.384l-9.29-11.547-21.049-35.306-19.947 8.149z" fill="#FFC059"/><path fill="#ffb6b6" d="M113.405 575.335h11.038l5.253-42.574h-16.291v42.574z"/><path d="M109.803 567.775l17.634-1.052v7.555l16.765 11.579a4.72 4.72 0 01-2.682 8.602h-20.993l-3.619-7.473-1.413 7.473h-7.915z" fill="#2f2e41"/><path fill="#ffb6b6" d="M175.405 575.335h11.038l5.253-42.574h-16.291v42.574z"/><path d="M171.803 567.775l17.634-1.052v7.555l16.765 11.579a4.72 4.72 0 01-2.682 8.602h-20.993l-3.619-7.473-1.413 7.473h-7.915zm-63.16-29.153h.12l2.123-69.224a18.101 18.101 0 01.237-17.105l.304-.55-.788-3.653a23.267 23.267 0 011.33-14.002l1.98-64.573c-7.075-45.851 26.642-75.754 26.642-75.754l-6.161-25.919 61-6-4.33 31.92 10.843 37.255c7.168 69.84 5.867 137.898-5.508 203.834l.31.157c1.117.386 1.596 1.933 1.07 3.455s-1.857 2.445-2.973 2.06l-26.675-.928c-1.116-.385-1.595-1.932-1.07-3.455.526-1.523 1.857-2.445 2.974-2.06l1.814.918-3.868-66.798.429-12.201-.884-13.842-4.089-62.26-15.476 76.562-15.808 82.933a2.908 2.908 0 01-1.961 5.064h-21.585a2.917 2.917 0 010-5.834z" fill="#2f2e41"/><path d="M693.585 281.713H316.316a47.899 47.899 0 01-47.844-47.844V71.7a47.898 47.898 0 0147.708-47.845C374.77 7.638 436.983-.384 501.117.014c61.024.378 125.818 8.4 192.583 23.842A47.9 47.9 0 01741.43 71.7v162.168a47.899 47.899 0 01-47.845 47.844zM316.316 25.856A45.896 45.896 0 00270.472 71.7v162.168a45.896 45.896 0 0045.844 45.844h377.27a45.896 45.896 0 0045.844-45.844V71.7a45.896 45.896 0 00-45.845-45.845l-.225-.026C555.2-6.14 431.955-6.144 316.583 25.82z" fill="#e6e6e6" style="isolation:isolate"/><path d="M309.662 239.39a1.132 1.132 0 01-1.132-1.131V67.31a1.132 1.132 0 012.264 0v170.95a1.132 1.132 0 01-1.132 1.132zm99 0a1.132 1.132 0 01-1.132-1.131V67.31a1.132 1.132 0 012.264 0v170.95a1.132 1.132 0 01-1.132 1.132zm99 0a1.132 1.132 0 01-1.132-1.131V67.31a1.132 1.132 0 012.264 0v170.95a1.132 1.132 0 01-1.132 1.132zm99 0a1.132 1.132 0 01-1.132-1.131V67.31a1.132 1.132 0 012.264 0v170.95a1.132 1.132 0 01-1.132 1.132z" fill="#e6e6e6" style="isolation:isolate"/><path d="M300.844 92.785a1.132 1.132 0 011.132-1.133h405.949a1.132 1.132 0 110 2.265H301.976a1.132 1.132 0 01-1.132-1.132zm0 126a1.132 1.132 0 011.132-1.133h405.949a1.132 1.132 0 110 2.265H301.976a1.132 1.132 0 01-1.132-1.132zm0-63a1.132 1.132 0 011.132-1.133h405.949a1.132 1.132 0 110 2.265H301.976a1.132 1.132 0 01-1.132-1.132z" fill="#e6e6e6" style="isolation:isolate"/><path d="M702.504 239.39a1.132 1.132 0 001.132-1.131V67.31a1.132 1.132 0 00-2.264 0v170.95a1.132 1.132 0 001.132 1.132z" fill="#e6e6e6" style="isolation:isolate"/><path d="M371.413 148.114h-28.515a6.514 6.514 0 01-6.445-5.6 144.984 144.984 0 010-39.047 6.515 6.515 0 016.336-5.598c8.971-4.022 18.633-4.021 28.722 0a6.439 6.439 0 014.9 2.362 6.587 6.587 0 011.359 5.49 87.66 87.66 0 000 34.54 6.587 6.587 0 01-1.36 5.49 6.438 6.438 0 01-4.997 2.363z" fill="#FFC059"/><path d="M368.426 112.755h-24a1.5 1.5 0 010-3h24a1.5 1.5 0 010 3zm0 12h-24a1.5 1.5 0 010-3h24a1.5 1.5 0 010 3zm0 12h-24a1.5 1.5 0 010-3h24a1.5 1.5 0 010 3z" fill="#fff"/><path d="M576.413 214.114h-28.515a6.514 6.514 0 01-6.445-5.6 144.984 144.984 0 010-39.047 6.515 6.515 0 016.336-5.598c8.971-4.022 18.633-4.021 28.722 0a6.439 6.439 0 014.9 2.362 6.587 6.587 0 011.359 5.49 87.66 87.66 0 000 34.54 6.587 6.587 0 01-1.36 5.49 6.438 6.438 0 01-4.997 2.363z" fill="#FFC059"/><path d="M573.426 178.755h-24a1.5 1.5 0 010-3h24a1.5 1.5 0 010 3zm0 12h-24a1.5 1.5 0 010-3h24a1.5 1.5 0 010 3z" fill="#fff"/><path d="M663.413 148.114h-28.515a6.514 6.514 0 01-6.445-5.6 144.984 144.984 0 010-39.047 6.515 6.515 0 016.336-5.598c8.971-4.022 18.633-4.021 28.722 0a6.439 6.439 0 014.9 2.362 6.587 6.587 0 011.359 5.49 87.66 87.66 0 000 34.54 6.587 6.587 0 01-1.36 5.49 6.438 6.438 0 01-4.997 2.363z" fill="#fd6584"/><path d="M660.426 124.755h-24a1.5 1.5 0 010-3h24a1.5 1.5 0 010 3zm0 12h-24a1.5 1.5 0 010-3h24a1.5 1.5 0 010 3z" fill="#fff"/><path d="M182.096 143.7c-5.673-8.693-14.936-15.525-25.252-16.103-10.317-.577-22.715 8.208-27.806 17.248-9.314 16.535-9.436 35.497 3.392 46.997 1.742-.59 8.988-1.438 10.759-2.008l1.123-2.028 1.385 1.233c15.853 1.581 20.733-9.197 46.098-15.993-1.483-10.279-4.025-20.652-9.699-29.346z" fill="#2f2e41"/><circle cx="160.32" cy="163.686" r="20.964" fill="#ffb7b7"/><path d="M183.549 202.636l-11.996-7.197-23.993-2.4-21.206 10.799.213 32.988 13.452 34.214 52.41 10.802 6.115-30.068s15.595-20.946-1.2-32.943z" fill="#FFC059"/><path d="M168.158 131.848a26.33 26.33 0 00-32.317 32.96c12.768 1.018 25.388-.174 35.337-9.207l.885-7.749 3.63 6.485q5.492-1.545 11-3.11a26.885 26.885 0 00-18.535-19.379z" fill="#2f2e41"/><path d="M132.198 345.067a9.157 9.157 0 01-2.03-13.894l-7.737-83.047 19.856 1.533 1.36 81.15a9.207 9.207 0 01-11.45 14.258z" fill="#ffb6b6"/><path d="M127.09 204.169s-4.787-.7-4.233 9.534c.444 8.194-1.666 58.697 1.94 69.504a7.194 7.194 0 00-3.099 8.258l23.159-4.936c2.697-4.638 2.138-9.399.178-10.17l.115-14.82 5.118-48.851-19.71-8.074zM245.449 352.75a6.587 6.587 0 01-1.36-5.49 87.66 87.66 0 000-34.538 6.587 6.587 0 011.36-5.491 6.439 6.439 0 014.9-2.363c10.088-4.02 19.75-4.02 28.721 0a6.515 6.515 0 016.336 5.6 144.983 144.983 0 010 39.047 6.514 6.514 0 01-6.445 5.6h-28.515a6.438 6.438 0 01-4.997-2.364z" fill="#FFC059"/><path d="M253.433 319.755h24a1.5 1.5 0 000-3h-24a1.5 1.5 0 000 3zm0 12h24a1.5 1.5 0 000-3h-24a1.5 1.5 0 000 3zm0 12h24a1.5 1.5 0 000-3h-24a1.5 1.5 0 000 3z" fill="#fff"/><path fill="#a0616a" d="M913.091 582.537h-12.299l-5.851-47.441 18.152.001-.002 47.44z"/><path d="M916.228 594.46l-39.658-.002v-.502a15.437 15.437 0 0115.436-15.435l7.245-5.496 13.516 5.496h3.462z" fill="#2f2e41"/><path fill="#a0616a" d="M855.951 582.537h-12.299l-5.851-47.441 18.152.001-.002 47.44z"/><path d="M859.088 594.46l-39.658-.002v-.502a15.437 15.437 0 0115.436-15.435l7.245-5.496 13.515 5.496h3.462zm63.793-315.654l-16.26 49.997-51.258-1.68 15.751-48.317h51.767z" fill="#2f2e41"/><path d="M846.12 322.921l96.634 2.52-1.68 47.058s1.68 12.604-1.681 15.965-5.042 3.361-3.362 9.244-7.198 15.489-6.12 16.567 3.6 6.96 3.6 6.96l-8.403 47.898s-5.882 83.19-7.563 84.87-3.361 0-1.68 4.202 3.36 2.52 1.68 4.201a61.89 61.89 0 00-4.202 5.042h-20.316s-1.531-8.403-1.531-9.243-1.68-5.883-1.68-6.723 1.485-2.326 1.485-2.326a27.645 27.645 0 001.035-5.237c0-1.68 5.042-66.383 5.042-66.383l-10.084-84.03-24.368 82.35s0 72.265-1.681 73.946-1.68.84-.84 4.201 4.201 2.52 1.68 5.042-3.36-1.68-2.52 2.52l.84 4.202-25.21.36s-3.36-7.082-1.68-9.603 1.58-1.833-.47-5.958-2.891-4.966-2.05-5.806.84-5.31.84-5.31l4.201-80.4s.84-84.87.84-87.392a8.382 8.382 0 00-.698-3.78v-3.422l3.22-12.125z" fill="#2f2e41"/><path d="M854.943 200.658l29.41-10.924 48.737 3.361 11.285 5.266a19.527 19.527 0 0110.883 21.56l-14.605 72.33 3.776 34.8s-61.336 46.288-109.233 32.003c0 0 .84-13.445 1.68-18.487s2.521-5.041 3.361-7.562 2.521 0 .84-5.042 13.446-40.334 13.446-40.334z" fill="#e6e6e6"/><path fill="#e6e6e6" d="M901.43 207.051l23.975-14.486-7.86-14.175h-25.47l-10.09 12.223 19.445 16.438z"/><path d="M909.679 326.156a9.383 9.383 0 009.857-10.48l29.984-14.593-14.908-8.832-26.187 15.21a9.434 9.434 0 001.254 18.695z" fill="#a0616a"/><path d="M921.458 320.099l-5.224-19.155 28.468-37.714c-9.215-11.11-12.449-27.514-10.175-51.567a10.437 10.437 0 0120.118-5.378c6.442 18.787 17.648 59.22 16.188 61.41-1.68 2.521-2.258 3.64.386 6.05 3.136 2.855 1.473 15.027.042 16.773-1.303 1.591-49.803 29.581-49.803 29.581z" fill="#e6e6e6"/><path d="M770.747 296.405a9.383 9.383 0 0012.598-6.951l33.014-4.69-11.479-12.98-29.59 6.443a9.434 9.434 0 00-4.543 18.178z" fill="#a0616a"/><path d="M784.913 293.645l5.013-19.211 41.504-23.383c3-19 4.88-25.195 18.834-44.92a10.437 10.437 0 0120.123 5.36c-3.774 19.499-20.847 71.758-22.957 72.56-1.923.73-62.517 9.594-62.517 9.594z" fill="#e6e6e6"/><circle cx="904.52" cy="143.517" r="26.049" fill="#a0616a"/><path d="M876.935 124.62c.692-6.23 9.691-12.46 25.612-16.613s24.228 13.844 24.228 13.844c11.076 5.538 4.5 34.958 1.039 32.189q-.052-.042-.104-.081a20.622 20.622 0 01-8.237-14.07l-.797-7.17c-3.646 2.794-7.755 5.16-12.166 4.457l5.398-5.316-15.35 6.68 5.082-6.993-.24-.236a25.104 25.104 0 01-8.054 4.56c-3.357.962-7.38.442-9.68-2.187a7.142 7.142 0 01-1.377-2.476c-4.177 2.861-5.008 8.987-5.008 8.987s-1.038-9.345-.346-15.575z" fill="#2f2e41"/><path d="M772.413 313.323h-28.515a6.514 6.514 0 01-6.445-5.6 144.984 144.984 0 010-39.047 6.515 6.515 0 016.336-5.599c8.971-4.021 18.633-4.021 28.722 0a6.439 6.439 0 014.9 2.362 6.587 6.587 0 011.359 5.491 87.66 87.66 0 000 34.539 6.587 6.587 0 01-1.36 5.49 6.438 6.438 0 01-4.997 2.364z" fill="#3f3d56"/><path d="M769.426 277.964h-24a1.5 1.5 0 010-3h24a1.5 1.5 0 010 3zm0 12h-24a1.5 1.5 0 010-3h24a1.5 1.5 0 010 3zm0 12h-24a1.5 1.5 0 010-3h24a1.5 1.5 0 010 3z" fill="#fff"/><circle cx="650.43" cy="53.842" r="19" fill="#e6e6e6"/><path d="M660.183 45.924a1.537 1.537 0 00-2.121 0 62.934 62.934 0 00-10.782 11.012l-2.305-4.459c-.886-1.715-3.476-.2-2.59 1.514l3.37 6.523a1.518 1.518 0 002.591 0 60.749 60.749 0 0111.837-12.469 1.51 1.51 0 000-2.121z" fill="#fff"/><circle cx="557.43" cy="53.842" r="19" fill="#e6e6e6"/><path d="M567.183 45.924a1.537 1.537 0 00-2.121 0 62.934 62.934 0 00-10.782 11.012l-2.305-4.459c-.886-1.715-3.476-.2-2.59 1.514l3.37 6.523a1.518 1.518 0 002.591 0 60.749 60.749 0 0111.837-12.469 1.51 1.51 0 000-2.121z" fill="#fff"/><circle cx="361.43" cy="51.842" r="19" fill="#e6e6e6"/><path d="M371.183 43.924a1.537 1.537 0 00-2.121 0 62.934 62.934 0 00-10.782 11.012l-2.305-4.459c-.886-1.715-3.476-.2-2.59 1.514l3.37 6.523a1.518 1.518 0 002.591 0 60.749 60.749 0 0111.837-12.469 1.51 1.51 0 000-2.121z" fill="#fff"/><circle cx="134.43" cy="135.842" r="13" fill="#2f2e41"/><path d="M282.67 594.102a1.186 1.186 0 01-1.19 1.19H1.19a1.19 1.19 0 110-2.38h280.29a1.187 1.187 0 011.19 1.19zm721 0a1.186 1.186 0 01-1.19 1.19H722.19a1.19 1.19 0 110-2.38h280.29a1.187 1.187 0 011.19 1.19z" fill="#ccc"/><path d="M130.514 122.803c-2.25-.626-4.59.422-6.69 1.444l-7.471 3.636 15.516 1.361.571-1.075c1.79-1.5.325-4.74-1.926-5.366z" fill="#2f2e41"/></svg>