<svg class="animated" id="freepik_stories-team-goals" xmlns="http://www.w3.org/2000/svg" viewBox="0 0 635.38 427.97" version="1.1"><style>@keyframes slideRight{0%{opacity:0;transform:translateX(30px)}}@keyframes slideLeft{0%{opacity:0;transform:translateX(-30px)}}@keyframes slideUp{0%{opacity:0;transform:translateY(30px)}}@keyframes zoomIn{0%{opacity:0;transform:scale(.5)}}@keyframes fadeIn{0%{opacity:0}}svg#freepik_stories-team-goals:not(.animated) .animable{opacity:0}</style><g id="freepik--background-complete--inject-69" class="animable" style="transform-origin:372.005px 166.25px;animation:1s 1 forwards cubic-bezier(.36,-.01,.5,1.38) slideRight;animation-delay:0s"><path d="M436.76 72.59H325.42s11-30.15 28-30.15 22.31 20.81 22.31 20.81 11.46-11.31 20.88-11.31 17.6 15 17.6 15 13.34-8.09 22.55 5.65z" style="transform-origin:381.09px 57.515px" class="animable" fill="#ebebeb" id="el3rg2s48x13w"/><path d="M673.84 221.75H562.49s11-30.15 28-30.15 22.32 20.81 22.32 20.81 11.46-11.3 20.87-11.3 17.61 14.94 17.61 14.94 13.33-8.05 22.55 5.7z" style="transform-origin:618.165px 206.675px" class="animable" fill="#ebebeb" id="el1pzb7481sc3h"/><path d="M315.75 181.22h-52s11.63-16.84 20.79-16.84 11.86 11.23 11.86 11.23 6.47-5.24 12.46-4.31 6.89 9.92 6.89 9.92z" style="transform-origin:289.75px 172.8px" class="animable" fill="#ebebeb" opacity=".5" id="elitmm0u2ct4"/><path d="M493.16 290.06h-52s11.62-16.84 20.78-16.84 11.87 11.23 11.87 11.23 6.46-5.24 12.45-4.31 6.9 9.92 6.9 9.92z" style="transform-origin:467.16px 281.64px" class="animable" fill="#ebebeb" opacity=".5" id="eli4a5nzuw2up"/><path d="M558.59 114.17h-52s11.62-16.85 20.78-16.85 11.87 11.23 11.87 11.23 6.47-5.24 12.46-4.3 6.89 9.92 6.89 9.92z" style="transform-origin:532.59px 105.745px" class="animable" fill="#ebebeb" opacity=".5" id="elvtvbj4sge8"/><path d="M177.51 166.53H76.16s13.88-31 28.73-32.93 22 23 22 23 9.58-8.82 17.11-8.82 13.34 11.62 13.34 11.62 15.01-7.94 20.17 7.13z" style="transform-origin:126.835px 150.012px" class="animable" fill="#ebebeb" id="elb3zhb0crdn"/><path d="M225.2 126.63h-68.47s11.76-22.45 24.52-22.78 19.47 17 19.47 17 19.84-15.93 24.48 5.78z" style="transform-origin:190.965px 115.238px" class="animable" fill="#ebebeb" opacity=".5" id="elvpbby9frvnf"/><ellipse cx="425.6" cy="133.55" rx="47.1" ry="46.38" style="transform-origin:425.6px 133.55px" class="animable" fill="#ebebeb" transform="rotate(-70.82)" id="elzii0vvpbkra"/><ellipse cx="425.6" cy="133.55" rx="36.74" ry="36.18" style="transform-origin:425.6px 133.55px" class="animable" fill="#fff" transform="rotate(-70.82)" id="elhputg3qfm2g"/><ellipse cx="425.6" cy="133.55" rx="26.49" ry="26.08" style="transform-origin:425.6px 133.55px" class="animable" fill="#ebebeb" transform="rotate(-70.82)" id="elyf8zc68xnwm"/><ellipse cx="425.6" cy="133.55" rx="16.13" ry="15.88" style="transform-origin:425.6px 133.55px" class="animable" fill="#fff" transform="rotate(-70.82)" id="elpcw9nk6u8e"/><path d="M432.68 133.43a7.21 7.21 0 01-7 7.29 7.05 7.05 0 01-7.13-7.06 7.23 7.23 0 017-7.28 7 7 0 017.13 7.05z" style="transform-origin:425.615px 133.55px" class="animable" fill="#ebebeb" id="elbc7xbiamqx"/><path style="transform-origin:391.36px 115.545px" class="animable" fill="#c7c7c7" transform="rotate(-62.4)" d="M390.96 77.12h.8v76.85h-.8z" id="el9egm9oclzmq"/><path style="transform-origin:295.49px 58.27px" id="elcfejuac9zkt" class="animable" fill="#c7c7c7" d="M296.94 60.39l.17-.07 3.12-.96-6.15-3.21-3.33 1.01 6.19 3.23z"/><path d="M350.66 91.16l1.1 3.24 6.15 3.21a15 15 0 01-1.09-3.23z" style="transform-origin:354.285px 94.385px" class="animable" fill="#c7c7c7" id="elbkdr3dx14xj"/><path style="transform-origin:367.43px 93.61px" id="el8i1bduiiry2" class="animable" fill="#c7c7c7" d="M369.78 93.81l-1.28 2.3-3.42-.29 2.24-1.83.23-2.88 2.23 2.7z"/><path d="M74.61 215.46l-4.44 9.79 3 1.36a2.55 2.55 0 011.49 2.23 12.39 12.39 0 00.16 1.6 2.56 2.56 0 01-1 2.47l-2.68 1.92 6.27 8.74 2.68-1.92a2.56 2.56 0 012.68-.17 16.1 16.1 0 001.47.66 2.54 2.54 0 011.63 2.12l.32 3.28 10.72-1.06-.33-3.28a2.57 2.57 0 011.2-2.4c.23-.14.44-.29.66-.45s.43-.31.63-.47a2.58 2.58 0 012.65-.37l3 1.37 4.44-9.79-3-1.36a2.55 2.55 0 01-1.49-2.23 14.21 14.21 0 00-.16-1.6 2.56 2.56 0 011-2.47l2.68-1.91-6.19-8.74-2.68 1.91a2.59 2.59 0 01-2.68.18 12.78 12.78 0 00-1.46-.66 2.57 2.57 0 01-1.64-2.12l-.33-3.29-10.71 1.06.32 3.28a2.54 2.54 0 01-1.19 2.39c-.23.15-.45.29-.67.45s-.42.31-.63.48a2.57 2.57 0 01-2.66.36zm9.92 5.54a8.81 8.81 0 11-2 12.29 8.83 8.83 0 012-12.29z" style="transform-origin:89.665px 228.17px" class="animable" fill="#ebebeb" id="elmxhw0gegg8s"/><path d="M644.18 137l-6.53 3.77 1.15 2a1.79 1.79 0 01-.06 1.88c-.21.31-.39.64-.57 1a1.77 1.77 0 01-1.59 1h-2.31v7.53h2.31a1.76 1.76 0 011.59 1c.18.33.36.66.57 1a1.79 1.79 0 01.06 1.88l-1.15 2 6.53 3.76 1.16-2a1.79 1.79 0 011.66-.87h1.11a1.77 1.77 0 011.66.87l1.16 2 6.54-3.76-1.16-2a1.78 1.78 0 01.07-1.87c.2-.32.39-.64.56-1a1.78 1.78 0 011.59-1h2.31v-7.53h-2.31a1.8 1.8 0 01-1.59-1 10.21 10.21 0 00-.56-1 1.79 1.79 0 01-.07-1.88l1.16-2-6.54-3.78-1.15 2a1.82 1.82 0 01-1.66.87H647a1.8 1.8 0 01-1.66-.88zm3.38 7.2a6.17 6.17 0 11-6.18 6.17 6.17 6.17 0 016.18-6.17z" style="transform-origin:647.555px 150.41px" class="animable" fill="#ebebeb" id="elhxhr40eqzh7"/><path d="M101.71 267.52l4.58 6 1.84-1.4a1.78 1.78 0 011.87-.18 9.47 9.47 0 001 .43 1.8 1.8 0 011.19 1.45l.3 2.29 7.48-1-.3-2.29a1.82 1.82 0 01.78-1.71c.31-.21.61-.44.9-.68a1.79 1.79 0 011.85-.31l2.14.89 2.89-6.95-2.14-.89a1.81 1.81 0 01-1.09-1.53c0-.19 0-.37-.05-.55l-.09-.55a1.79 1.79 0 01.65-1.75l1.85-1.42-4.58-6-1.78 1.43a1.78 1.78 0 01-1.88.18c-.33-.16-.68-.3-1-.43a1.8 1.8 0 01-1.19-1.45l-.3-2.29-7.48 1 .3 2.28a1.81 1.81 0 01-.78 1.71 10 10 0 00-.89.68 1.81 1.81 0 01-1.86.31l-2.14-.89-2.89 6.95 2.14.89a1.8 1.8 0 011.08 1.53 5.32 5.32 0 00.06.56c0 .18 0 .36.08.54a1.79 1.79 0 01-.65 1.77zm6.72-4.27a6.18 6.18 0 116.92 5.32 6.16 6.16 0 01-6.92-5.32z" style="transform-origin:114.56px 262.46px" class="animable" fill="#dbdbdb" id="elwyfnhksaom"/></g><g id="freepik--Arrow--inject-69" class="animable" style="transform-origin:361.876px 287.601px;animation:1s 1 forwards cubic-bezier(.36,-.01,.5,1.38) slideLeft;animation-delay:0s"><path style="transform-origin:385.255px 305.045px" class="animable" fill="#ffc727" transform="rotate(-15.14)" d="M300.03 291.69h170.45v26.71H300.03z" id="elzss24nk2nk"/><path style="transform-origin:289.74px 330.895px" class="animable" fill="#ffc727" transform="rotate(-15.14)" d="M281.16 317.54h17.16v26.71h-17.16z" id="elfksem75vfmw"/><path style="transform-origin:271.38px 335.865px" class="animable" fill="#ffc727" transform="rotate(-15.14)" d="M266.09 322.51h10.58v26.71h-10.58z" id="eluq4fpjqn3jb"/><path style="transform-origin:258.765px 339.275px" class="animable" fill="#ffc727" transform="rotate(-15.14)" d="M256.14 325.92h5.25v26.71h-5.25z" id="elu1lxw852h5"/><path style="transform-origin:422.175px 243.835px" id="eljuv3n0dgbm" class="animable" fill="#ffc727" d="M416.03 265.32l-11.63-42.97 35.55 13.44-23.92 29.53z"/></g><g id="freepik--Hill--inject-69" class="animable" style="transform-origin:382.565px 405.32px;animation:1s 1 forwards cubic-bezier(.36,-.01,.5,1.38) slideUp;animation-delay:0s"><path d="M685.28 466.42l-10.4-32.26-27-25.28-13.56-35.8h-68.51l-18 7.12-64 2.87-34.17 18.73-81.35 2.55s-23.05 13.23-24.72 14.2-41.57 8.07-41.57 8.07l-35.45 2.69h-60.16L149.32 454l-69.47 12.52h605.43" style="transform-origin:382.565px 419.8px" class="animable" fill="#ffc727" id="elp0e3pkqjjhg"/><path d="M685.28 466.42l-10.4-32.26-27-25.28-13.56-35.8h-68.51l-18 7.12-64 2.87-34.17 18.73-81.35 2.55s-23.05 13.23-24.72 14.2-41.57 8.07-41.57 8.07l-35.45 2.69h-60.16L149.32 454l-69.47 12.52h605.43" style="transform-origin:382.565px 419.8px" class="animable" opacity=".2" id="el5htf6dd7gvc"/><path style="transform-origin:427.1px 361.865px" class="animable" opacity=".1" d="M392.33 362.85l28.18 10.78 41.36 5.98-27.07-19.4-8.33-16.09-34.14 18.73z" id="elzwsz7n08e1j"/><path style="transform-origin:288.43px 394.245px" class="animable" opacity=".1" d="M229.48 388.35l20.42 14.97 66.6.48 30.88 5.08-25.33-16.2-28.26-.7-7.53-12.37-56.78 8.74z" id="elj8ublyu03nh"/><path style="transform-origin:135.37px 402.68px" class="animable" opacity=".1" d="M92.01 415l31.74-5.6 22.61 3.77 32.37-8.48-29.65-14.33L92.01 415z" id="eloent4uic1xo"/></g><g id="freepik--Floor--inject-69" class="animable" style="transform-origin:317.69px 427.47px;animation:1s 1 forwards cubic-bezier(.36,-.01,.5,1.38) zoomIn;animation-delay:0s"><path style="transform-origin:317.69px 427.47px" id="elcotkujz7gqd" class="animable" fill="#263238" d="M7.41 427.47l77.57-.24 77.57-.09 155.14-.17 155.14.17 77.57.09 77.57.24-77.57.25-77.57.09-155.14.16-155.14-.17-77.57-.09-77.57-.24z"/></g><g id="freepik--character-1--inject-69" class="animable" style="transform-origin:189.094px 300.951px;animation:1s 1 forwards cubic-bezier(.36,-.01,.5,1.38) zoomIn;animation-delay:0s"><path d="M186.62 185.8c3 22.9 9.55 45.63 15.94 48.65 8.6 4.06 31.05 3.42 42.68 2 3.42-.42-.35-26.94-4-26.5-4.42.53-27.21 3.64-27.65 3.56-.94-.17-14.82-22.83-18-28.33-5.32-9.18-10.29-9.55-8.97.62z" style="transform-origin:216.494px 207.886px" class="animable" fill="#f7a9a0" id="elh9cp5q9q48"/><path d="M240.52 235.54c3 .61 14.65 1.88 22.69.34 3.9-.75 14.87-4.08 14.52-7.12s-3.63-2.35-3.63-2.35 4.42-2.1 3.79-5.12-5.71-1.79-5.71-1.79 4.39-2.49 3.55-5.46-5.75-.87-5.75-.87 4.12-2.09 2.39-4.24c-2.07-2.6-9.22 2.11-13.57 2.72-1 .14-20.24 1.38-20.24 1.38z" style="transform-origin:258.256px 222.383px" class="animable" fill="#f7a9a0" id="eluwd7rw7xu7"/><path d="M269.89 213.15c-5.27 3.45-8.17 4-14.37 4.15-.12 0-.14.19 0 .2 6.08.45 9.82.22 14.56-4.1.23-.22.06-.4-.19-.25z" style="transform-origin:262.805px 215.378px" class="animable" fill="#263238" id="ela3a4srou6oc"/><path d="M272.44 219.43c-5.79 3.11-8.93 3.79-15.42 4.37-.09 0-.08.17 0 .17 6.41-.05 10.14-.36 15.52-4.22.25-.17.16-.46-.1-.32z" style="transform-origin:264.822px 221.681px" class="animable" fill="#263238" id="elnbirlhxp0ep"/><path d="M273.61 226.64c-5.82 2.61-9.23 3.5-15.6 3.26a.12.12 0 000 .23c6.47.88 10.74-.2 15.69-3.3.3-.21.3-.35-.09-.19z" style="transform-origin:265.92px 228.498px" class="animable" fill="#263238" id="eljknrwjyxc7"/><path d="M238.08 212.27s6-5.16 9.09-6.85 17.07-3.7 17.68-.71c.78 3.85-7.05 6.6-11.05 7.45 0 0 1.81 8.92-3.38 12.11s-12.34-12-12.34-12z" style="transform-origin:251.492px 213.943px" class="animable" fill="#f7a9a0" id="el6wur3c9v7xy"/><path d="M264.71 205.84c-1.82 4-7.16 4.8-11 5.91a.37.37 0 00-.22.56c.51 3.79.13 9.29-2.85 12a.1.1 0 00.12.15c3.59-2.5 4.4-7.87 3.58-12 3.94-1.08 9.25-2.08 10.39-6.64.03.01 0-.01-.02.02z" style="transform-origin:257.682px 215.144px" class="animable" fill="#263238" id="elhihs4jbw16c"/><path d="M240.4 209l-1.15 29.7s-31.55 1.43-38.41-5.2c-4.58-4.43-12.75-27.75-14.42-43.74s3.42-15.7 11.75-1.65 15.27 24.42 15.71 24.42S240.4 209 240.4 209z" style="transform-origin:213.252px 208.247px" class="animable" fill="#ffc727" id="elwoq4s72b4gg"/><path d="M234.85 211.76c0-.09-.14-.09-.15 0a236.66 236.66 0 00-1.65 24.81c0 .09.14.09.15 0a236.66 236.66 0 001.65-24.81z" style="transform-origin:233.95px 224.165px" class="animable" fill="#263238" id="ela0kimch0ohi"/><path d="M214.62 237.94c-6-.75-11.39-2.09-13.77-4.39-4.59-4.45-12.77-27.76-14.44-43.75-.59-5.72-.32-9.35.66-11z" style="transform-origin:200.36px 208.37px" class="animable" opacity=".1" id="el5kkf2xud35u"/><path d="M248.8 429.15c-2 .64-59.88-.78-62.05-2.23-.83-.54 6.24-51.84 6.24-51.84l37.22 1-7.33 32.48S244.78 419 247 420.83s3.84 7.7 1.8 8.32z" style="transform-origin:218.208px 402.194px" class="animable" fill="#f7a9a0" id="elb8peemxxcws"/><path d="M248.81 429.15c-2.05.64-59.89-.77-62.06-2.23-.41-.27 1.07-12.61 2.68-25.18l34.86.58-1.41 6.22S244.78 419 247 420.83s3.84 7.7 1.81 8.32z" style="transform-origin:218.209px 415.524px" class="animable" fill="#ebebeb" id="el1qito41ajij"/><path d="M249.65 429.41c-2.07.66-61-.35-63.23-1.81-.85-.55 1.9-20 1.9-20.11l34.8.47v.64s22.39 10.48 24.66 12.35 3.94 7.81 1.87 8.46z" style="transform-origin:218.424px 418.553px" class="animable" fill="#ffc727" id="el7crjpi74chy"/><path d="M249 427.11c-9.93-.41-50-1.14-59.87-.8-.08 0-.09.06 0 .07 9.84.62 49.94 1 59.88.9.22-.01.22-.16-.01-.17z" style="transform-origin:219.12px 426.759px" class="animable" fill="#263238" id="elrohbs642qzs"/><path d="M227.35 408.14c-3.9-.8-8.69-.28-11.73 2.45-.11.11 0 .27.17.24a55 55 0 0111.54-2.2.25.25 0 00.02-.49z" style="transform-origin:221.559px 409.316px" class="animable" fill="#263238" id="elhxpik95rvw5"/><path d="M230.14 409.89c-3.9-.8-8.69-.28-11.72 2.45-.12.11 0 .27.16.24a55.1 55.1 0 0111.54-2.2.25.25 0 00.02-.49z" style="transform-origin:224.351px 411.066px" class="animable" fill="#263238" id="eleiyde15tfgs"/><path d="M232.94 411.63c-3.9-.79-8.69-.27-11.73 2.46-.12.11 0 .27.16.24a54.58 54.58 0 0111.54-2.2.25.25 0 00.03-.5z" style="transform-origin:227.168px 412.814px" class="animable" fill="#263238" id="elbpcjk0z9eoj"/><path d="M226.24 406.68l-39-.21s11.49-80.87 10.49-84.2C197.31 321 155 279.93 155 279.93c-16.86-16.61-11.8-43.41-11.8-43.41h48.61s-2.22 11.84.3 14.43c3.06 3.13 39.74 42.7 44.51 55.31 6.38 16.83-10.38 100.42-10.38 100.42z" style="transform-origin:190.278px 321.6px" class="animable" fill="#37474f" id="elo6rl559we4c"/><path d="M225.74 398.94c-6-.39-4.27-.38-10.28-.68-2.94-.15-22.26-1.11-25-.66-.06 0-.07.14 0 .15 2.73.67 22.06 1.22 25 1.29 6 .17 4.29 0 10.3.12.08 0 .09-.16-.02-.22z" style="transform-origin:208.116px 398.32px" class="animable" fill="#263238" id="elup5l2dfsnz"/><path d="M194.21 253.14l-18.42 47.06C165.31 289.92 155 279.93 155 279.93c-16.84-16.61-11.79-43.42-11.79-43.42h48.61s-2.22 11.85.3 14.43c.35.35 1.07 1.06 2.09 2.2z" style="transform-origin:168.355px 268.355px" class="animable" fill="#263238" id="el7zjy6qvmay"/><path d="M161.59 464.5c-2.12.25-58.72-11.81-60.58-13.64-.72-.68.56-9 2.39-19.08l.06-.31c.37-2.07 10.34-32.71 10.34-32.71l36.89 4.69-10.63 35.39-.15.62s19.6 14.31 21.44 16.53 2.35 8.28.24 8.51z" style="transform-origin:131.885px 431.632px" class="animable" fill="#f7a9a0" id="elf2yrz5ivf0w"/><path d="M161.58 464.5c-2.11.25-58.71-11.81-60.57-13.64-.72-.69.56-9 2.39-19.08l.06-.31c.1-.54.86-3.35 1.93-7.18l36.64 8-2 6.55-.15.62s19.61 14.31 21.44 16.53 2.38 8.28.26 8.51z" style="transform-origin:131.876px 444.397px" class="animable" fill="#ebebeb" id="eleky96duws7k"/><path d="M162.12 464.73c-2.16.24-59.79-12.18-61.68-14.05-.73-.7.59-9.2 2.48-19.43 0-.11 0-.21.07-.32l37.26 7.6-.15.63s19.93 14.62 21.8 16.9 2.38 8.43.22 8.67z" style="transform-origin:131.885px 447.832px" class="animable" fill="#ffc727" id="elobpze4j48pd"/><path d="M162 462.35c-9.66-2.33-48.86-10.83-58.59-12.4-.07 0-.09 0 0 .06 9.53 2.52 48.79 10.7 58.57 12.5.14.04.17-.11.02-.16z" style="transform-origin:132.725px 456.233px" class="animable" fill="#263238" id="elzp7n9v8m5"/><path d="M144.37 439.53c-3.67-1.54-8.47-2-12 .14-.14.08 0 .27.11.26a55 55 0 0111.75.08.25.25 0 00.14-.48z" style="transform-origin:138.431px 439.119px" class="animable" fill="#263238" id="el5c0sz4lvvio"/><path d="M146.77 441.79c-3.67-1.54-8.47-2-12 .13-.13.08 0 .28.11.26a55.61 55.61 0 0111.75.09.25.25 0 00.14-.48z" style="transform-origin:140.832px 441.378px" class="animable" fill="#263238" id="elc5tmw16fdt"/><path d="M149.17 444.05c-3.67-1.54-8.47-2-12 .13-.13.08 0 .27.12.26a54.86 54.86 0 0111.74.09.25.25 0 00.14-.48z" style="transform-origin:143.233px 443.638px" class="animable" fill="#263238" id="eljbkwjnpgokh"/><path d="M182.53 236.52s3.16 27-2.42 33.22c0 0-9.89 62.3-13.43 80.25-4.67 23.69-23.45 88.24-23.45 88.24l-41.32-7s24.37-84.85 24.57-86.4c1.12-8.76 11-69.56 10.5-71.07-5.18-15.45 2.29-37.26 2.29-37.26z" style="transform-origin:142.666px 337.365px" class="animable" fill="#37474f" id="el7lye8ao845q"/><path d="M191.84 236.52s-3.94 28.59-11.73 33.22c0 0-9.89 62.3-13.43 80.25-4.67 23.69-23.45 88.24-23.45 88.24l-41.32-7s24.37-84.85 24.57-86.4c1.12-8.76 11-69.56 10.5-71.07-5.18-15.45 2.29-37.26 2.29-37.26z" style="transform-origin:146.875px 337.365px" class="animable" fill="#37474f" id="elow7ofjjax6"/><path d="M143.05 429.73c-6.11-1.37-4.33-1.08-10.46-2.36-3-.63-22.7-4.75-25.61-4.75-.07 0-.09.12 0 .15 2.7 1.11 22.48 4.81 25.49 5.37 6.15 1.15 4.4.74 10.57 1.8.09.06.13-.18.01-.21z" style="transform-origin:125.022px 426.285px" class="animable" fill="#263238" id="elrjibrqtd5z"/><path d="M185.74 266.63a79 79 0 00-12.58 5.86c-.16.08-.06.33.11.25 4.24-1.82 8.56-3.56 12.7-5.61a.28.28 0 00-.23-.5z" style="transform-origin:179.584px 269.689px" class="animable" fill="#263238" id="elsci9nfqjim"/><path d="M187.08 237.54c0-.14-.26-.18-.26 0 0 5-.29 9.46-.71 14.16-.2 2.19-2 14.25-5.74 13.37-.64-.15-1-.77-1.06-1.72a15.26 15.26 0 01.5-3.71c.42-2.52.76-5.05 1-7.61a69.45 69.45 0 00-.16-14.27.12.12 0 00-.24 0 132.45 132.45 0 01-1.15 19.71c-.48 3.14-2.06 7.86 1.22 8.34s5.51-7.42 5.92-9.58a72.14 72.14 0 00.68-18.69z" style="transform-origin:182.926px 251.625px" class="animable" fill="#263238" id="elod73ydno5s"/><path d="M180.47 265.38a19.88 19.88 0 00-.85 2.5 5.61 5.61 0 00-.36 2.05.14.14 0 00.26.06 6.77 6.77 0 00.88-2c.29-.77.6-1.54.86-2.32a.42.42 0 00-.79-.29z" style="transform-origin:180.273px 267.581px" class="animable" fill="#263238" id="el37qq9u2946u"/><path d="M141.91 253.19c.92-.15 2.26.17 6.25-.11a21.42 21.42 0 003.27-.53 7.19 7.19 0 003-1.23 16 16 0 003.47-4.78 24.78 24.78 0 002.42-5.89c0-.12.21-.06.19.06-.21 1.16-.33 2.33-.63 3.48a21 21 0 01-1.17 3.16 12.73 12.73 0 01-3.56 5.26c-1.8 1.35-4.3 1.61-6.48 1.76-1.26.09-6.21-.05-6.87-.75-.08-.13-.07-.4.11-.43z" style="transform-origin:151.132px 247.489px" class="animable" fill="#263238" id="elwdqwvo34ro"/><path d="M193.08 247.65c-1.1.78-54.37-11-54.59-11.38-.59-1.15 25.95-54.62 41.15-62.12 3.27-1.61 11.48 1.75 13.16 4.11 1 1.48 2.27 10 3 16.91 1.37 13.83-1.8 51.83-2.72 52.48z" style="transform-origin:167.309px 210.708px" class="animable" fill="#ffc727" id="el39w9b9u1tja"/><path d="M190.77 184.14c-.16 5.28-.43 10.56-.72 15.84s-.64 10.55-1 15.83-.75 10.54-1.19 15.81l-.67 7.9c-.25 2.64-.48 5.27-.76 7.9.07-2.64.2-5.28.31-7.93l.4-7.92c.29-5.27.65-10.55 1-15.82s.75-10.55 1.19-15.82.89-10.53 1.44-15.79z" style="transform-origin:188.6px 215.78px" class="animable" fill="#263238" id="elhioismko01w"/><path d="M193.57 200.59a1 1 0 11-.94-1 1 1 0 01.94 1z" style="transform-origin:192.57px 200.588px" class="animable" fill="#263238" id="el9wukuoy2m0f"/><path d="M192.68 210.76a1 1 0 11-1-1 1 1 0 011 1z" style="transform-origin:191.68px 210.76px" class="animable" fill="#263238" id="ela9lsr4gpasb"/><path d="M191.78 220.93a1 1 0 11-.94-1 1 1 0 01.94 1z" style="transform-origin:190.78px 220.928px" class="animable" fill="#263238" id="elqo9cdmch0fn"/><path d="M190.88 231.1a1 1 0 11-2-.09 1 1 0 012 .09z" style="transform-origin:189.88px 231.058px" class="animable" fill="#263238" id="elrv96q4yr1uc"/><path d="M190 241.28a1 1 0 01-1 .94 1 1 0 11.09-2 1 1 0 01.91 1.06z" style="transform-origin:189.023px 241.22px" class="animable" fill="#263238" id="eluqm0ah7owkj"/><path d="M168.48 179.54c-20.2 9.22-36.26 24.33-36.21 31 .07 9.5 8.5 32.91 14.33 43.08 1.7 3 24.68-10.79 22.85-14-2.2-3.86-13.52-26.62-13.61-27.06-.21-.93 15.61-20 19.76-24.6 7.63-8.55 3.87-13.43-7.12-8.42z" style="transform-origin:155.938px 215.783px" class="animable" fill="#f7a9a0" id="el2h7oeyybbly"/><path d="M184.89 271a4.09 4.09 0 01-4.57 1 6.12 6.12 0 01-2 3.62c-2 1.56-5.26-.83-5.26-.83a7.56 7.56 0 01-2.72 3.49c-2 1.3-5.7-.63-5.7-.63a6.58 6.58 0 01-4.32 1.57c-4.21-.21-7.36-5.84-9.39-9.4s-4.48-15.56-5.17-17.8l22.72-13.25s13.67 13.33 15.52 17.86c1.46 3.81 3 11.94.89 14.37z" style="transform-origin:165.842px 258.995px" class="animable" fill="#f7a9a0" id="ell8hq5h7579"/><path d="M180.59 271.61c-.64-4.44-2.56-8.45-4.24-12.56a.08.08 0 00-.14.06c1.72 4.07 2.62 8.42 4.17 12.55a.11.11 0 00.21-.05z" style="transform-origin:178.4px 265.373px" class="animable" fill="#263238" id="elqggia4ydh7b"/><path d="M173.31 274.53a11.39 11.39 0 00-1.11-2.85c-.46-1-.93-1.95-1.43-2.92q-1.47-2.89-3.1-5.72c0-.08-.19 0-.14.06a130.688 130.688 0 014.15 8.84 14.28 14.28 0 001.36 2.74.15.15 0 00.27-.15z" style="transform-origin:170.426px 268.883px" class="animable" fill="#263238" id="elej2pgbux2ss"/><path d="M164.6 277.55a8.32 8.32 0 00-1.13-2.51c-.47-.87-.93-1.74-1.39-2.62-.92-1.75-1.83-3.5-2.69-5.29 0-.08-.18 0-.14.06.86 1.82 1.69 3.65 2.57 5.45.43.89.86 1.78 1.3 2.66a7.9 7.9 0 001.39 2.3s.1-.01.09-.05z" style="transform-origin:161.922px 272.348px" class="animable" fill="#263238" id="elr4ss1bv38h"/><path d="M169.21 238.63l-28.65 8.81s-11.83-33.95-9-39.66 19.7-21.34 34.44-27.68 18.44-1.33 7.48 10.79-17.3 21.22-17.17 21.65 12.9 26.09 12.9 26.09z" style="transform-origin:155.476px 212.392px" class="animable" fill="#ffc727" id="elkppd9bpzyq"/><path d="M164.38 233.67c.08 0 0-.17 0-.15a218.92 218.92 0 00-22.85 6.7c-.09 0 0 .17 0 .15a219.09 219.09 0 0022.85-6.7z" style="transform-origin:152.953px 236.945px" class="animable" fill="#263238" id="eljiuw5o731ki"/><path d="M169.31 238.16c-2-4.43-10.16-20.61-12.34-24.94a2.31 2.31 0 01-.25-.61 1.41 1.41 0 01.41-1.06c.34-.48.7-1 1.05-1.43.74-1 1.48-2 2.23-3 1.46-1.93 3-3.83 4.47-5.73l.23-.3c1.19-1 2.4-2 3.51-3.12.06 0 0-.14-.09-.1-.95.74-1.84 1.54-2.74 2.35l4.26-5.41H170c-3.54 3.83-6.83 7.86-10 12-.77 1-1.54 2-2.3 3.07-.38.52-.77 1-1.14 1.55a1.82 1.82 0 00-.42.9 2.22 2.22 0 00.37 1.19c.29.61.59 1.23.89 1.84l1.71 3.41c1.28 2.57 8.67 16.94 10 19.46.1.1.24.02.2-.07z" style="transform-origin:163.095px 216.543px" class="animable" fill="#263238" id="elhfv58x1w7nt"/><path d="M188.09 185.17c-3.33-.12-7.37-6.37-8.43-10.83-.07-.3 1.11-3 2.39-6.32.76-2 1.57-4.29 2.16-6.41l12.43 6.91a35.1 35.1 0 00-3.54 7.8 5.06 5.06 0 00-.14.9v.15c-.21 1.73-1.65 7.92-4.87 7.8z" style="transform-origin:188.149px 173.391px" class="animable" fill="#f7a9a0" id="elt0y59wphmg8"/><path d="M184.8 161.93c-.32 2.77-.92 12.84 6.75 15.14a8.84 8.84 0 001.38.3.44.44 0 000-.15 5 5 0 01.15-.9 35.67 35.67 0 013.55-7.8z" style="transform-origin:190.634px 169.65px" class="animable" fill="#263238" id="elw90fjvueu7j"/><path d="M180.89 150.28c-.72 5.08 4 18.67 8 21.24 5.7 3.74 13.95 2.88 16.84-3.72 2.81-6.41-3.7-24-8-26.23-6.34-3.29-15.73 1.22-16.84 8.71z" style="transform-origin:193.614px 157.104px" class="animable" fill="#f7a9a0" id="el79q6skkjs1q"/><path d="M195.82 156.69s-.06.06 0 .1c.34.91.59 2-.14 2.59v.05c.95-.49.61-1.94.14-2.74z" style="transform-origin:195.983px 158.062px" class="animable" fill="#263238" id="el6sunab4b2wa"/><path d="M194.67 156c-1.51.4-.61 3.39.8 3s.47-3.32-.8-3z" style="transform-origin:195.03px 157.505px" class="animable" fill="#263238" id="elj8r4bqhl48"/><path d="M201 155.16s.09 0 .1.06c.25.94.69 2 1.62 2 0 0 .05 0 0 .06-1.09.18-1.66-1.19-1.72-2.12z" style="transform-origin:201.871px 156.228px" class="animable" fill="#263238" id="elmwta9uzwrdf"/><path d="M201.51 153.94c1.46-.57 2.48 2.39 1.12 2.92s-2.35-2.45-1.12-2.92z" style="transform-origin:202.11px 155.395px" class="animable" fill="#263238" id="elfohqsfjfsht"/><path d="M193.08 155c.37-.23.68-.5 1-.76s.74-.49.91-1a.63.63 0 00-.33-.73 1.63 1.63 0 00-1.63.31 2.42 2.42 0 00-1 1.4.71.71 0 001.05.78z" style="transform-origin:193.511px 153.756px" class="animable" fill="#263238" id="el1a8aq9tgw1n"/><path d="M202.21 152.08a11 11 0 01-1.28 0 2.05 2.05 0 01-1.32-.2.65.65 0 01-.2-.78 1.64 1.64 0 011.48-.77 2.42 2.42 0 011.67.46.7.7 0 01-.35 1.29z" style="transform-origin:201.119px 151.216px" class="animable" fill="#263238" id="eljycn0nboboj"/><path d="M197.29 165.65c.29.15.6.39 1 .31a2.62 2.62 0 00.93-.53h.05a1.29 1.29 0 01-1 .86 1 1 0 01-1-.6c-.08-.02-.02-.06.02-.04z" style="transform-origin:198.25px 165.862px" class="animable" fill="#263238" id="elgj81fyn7zy8"/><path d="M197.43 162.58a3.3 3.3 0 002.54.77 4.22 4.22 0 001.15-.29l.21-.09.19-.1a.21.21 0 00.12-.26v-.17c-.2-.72-.6-1.78-.6-1.78.3.05 1.82.25 1.68-.12a49.44 49.44 0 00-4.11-9.2.09.09 0 00-.16.08c1 3 2.43 5.73 3.44 8.69a5.57 5.57 0 00-1.63 0c-.09.06.8 2 .87 2.38a4.63 4.63 0 01-3.58 0c-.14-.05-.2.03-.12.09z" style="transform-origin:200.062px 157.336px" class="animable" fill="#263238" id="ell7gxh0ldan"/><path d="M200.53 163a3.84 3.84 0 01-1.27 1.49 1.72 1.72 0 01-1 .28c-.79 0-.95-.72-.94-1.34a4 4 0 01.15-1 5.09 5.09 0 003.06.57z" style="transform-origin:198.925px 163.601px" class="animable" fill="#263238" id="elrqrjr48dado"/><path d="M199.26 164.51a1.72 1.72 0 01-1 .28c-.79 0-.95-.72-.94-1.34a1.8 1.8 0 011.94 1.06z" style="transform-origin:198.29px 164.109px" class="animable" fill="#ff9cbd" id="elyyx6c2avrl"/><path d="M186.77 156.93c.57-2.82-1.56-7.16-.37-8.55 2.6-3 9.23 1.28 13.35.77s5-3.22 3.86-6.36-4.16-5-8.72-5.06a16.9 16.9 0 00-10.8 4.07s.8-1.75.35-2.2-2.19 1.35-2.7 2.09a6 6 0 00-.73 2 6.57 6.57 0 00-1.85.05 3.83 3.83 0 00-2.23 1.36c0 .25 1.44.25 2.46.17 0 0-1.57 2.76-1.26 4.91s5 12 5.81 12c1.06.02 2.59-4.1 2.83-5.25z" style="transform-origin:190.499px 149.955px" class="animable" fill="#263238" id="el5rywesxnsr8"/><path d="M179.75 145s.09 0 .06.05a6.88 6.88 0 00-1.77 3.33 8.54 8.54 0 00.53 4.44 40.5 40.5 0 004.24 7.61c.05.07-.08.15-.12.08a30.31 30.31 0 01-4.59-8.19c-.79-2.52-.57-5.57 1.65-7.32z" style="transform-origin:180.252px 152.769px" class="animable" fill="#263238" id="elifhr40cr4f"/><path d="M186.11 147.36a9.76 9.76 0 013.65-.23 14 14 0 013.3 1.14 13.91 13.91 0 007.63 1.08v.05a12.15 12.15 0 01-7-.59 30.87 30.87 0 00-3.43-1.29 12.93 12.93 0 00-4.07 0 .11.11 0 01-.08-.16z" style="transform-origin:193.394px 148.359px" class="animable" fill="#263238" id="elheoxm9bazqs"/><path d="M186.4 140.35a18.88 18.88 0 014.9-2.34 15 15 0 015.14-.84c3 .1 6 1.63 7.05 4.58a6.51 6.51 0 010 4.68.08.08 0 01-.16-.05 6.73 6.73 0 00-2.52-7.65c-2.69-1.79-6.11-1.52-9.08-.65a28 28 0 00-5.31 2.29s-.03-.01-.02-.02z" style="transform-origin:195.162px 141.829px" class="animable" fill="#263238" id="elwlyruddi8hq"/><path d="M195.33 162.37a4.09 4.09 0 112.93-5.75 4.08 4.08 0 01-2 5.43 4.33 4.33 0 01-.93.32zm-1.43-7.5a4.55 4.55 0 00-.84.27 3.55 3.55 0 10.84-.27z" style="transform-origin:194.553px 158.354px" class="animable" fill="#37474f" id="ele8l6uyuerjl"/><path d="M204.26 159.5c-1.54.3-3.23-1-3.87-3.05a4.83 4.83 0 010-3 2.55 2.55 0 014.16-1.31 4.85 4.85 0 011.68 2.47c.68 2.15-.07 4.3-1.67 4.81zm-1.83-7.39h-.2a2.2 2.2 0 00-1.36 1.48 4.37 4.37 0 000 2.65c.58 1.86 2.12 3 3.44 2.63s1.91-2.27 1.32-4.13a4.35 4.35 0 00-1.49-2.19 2.26 2.26 0 00-1.71-.44z" style="transform-origin:203.316px 155.524px" class="animable" fill="#37474f" id="elrxun4u6he6"/><path d="M198.28 157.11l-.47-.29c.44-.68 1.6-1.78 2.87-1.06l-.27.47c-1.14-.64-2.09.82-2.13.88z" style="transform-origin:199.245px 156.317px" class="animable" fill="#37474f" id="elt82qqfiosge"/><path d="M181.22 163.58l-.53-.09c0-.25.45-2.47 1.56-3s8.22-2.06 8.53-2.13l.11.53c-2.06.45-7.6 1.68-8.4 2.08s-1.16 2.03-1.27 2.61z" style="transform-origin:185.79px 160.97px" class="animable" fill="#37474f" id="elkvu8zyek2mp"/><path d="M186.5 160.61s-3.95-3.94-5.8-2.46 1.69 7.61 4.25 8.07a2.48 2.48 0 003-1.89z" style="transform-origin:184.068px 162.053px" class="animable" fill="#f7a9a0" id="elsyllpz8sr3f"/><path d="M181.76 159.88v.07a6.22 6.22 0 013.88 3.29 1.37 1.37 0 00-2.08 0s0 .1.06.08a1.53 1.53 0 011.75.23 7.86 7.86 0 011 1.2c.11.14.36 0 .27-.15-.34-2.21-2.54-4.91-4.88-4.72z" style="transform-origin:184.21px 162.339px" class="animable" fill="#263238" id="eln0j5a8qec1"/><path d="M192.94 177.37l-2.6 6.39L180 173l-3 3.11s8.85 16.76 9 16l4.66-6.79 3.57 5.15.39-10.28z" style="transform-origin:185.81px 182.568px" class="animable" fill="#ffc727" id="elz422fdt7tks"/><path d="M194.65 184.52c0-2 .09-2.15 0-4.16 0-.07-.12-.11-.14 0-.51 1.91-.48 7.72-.6 9.55-.19-.22-3.26-4.55-3.3-4.49-.79 1.06-4.45 6-4.65 6.47-1.4-2.67-6.79-12.36-8.48-14.9a.07.07 0 00-.13.06c1.22 2.8 8.34 15.85 8.46 15.82a62.29 62.29 0 004.84-7.18c.66.92 3.74 5.77 3.78 5.47a65.87 65.87 0 00.22-6.64z" style="transform-origin:186.017px 184.909px" class="animable" fill="#263238" id="elcnuujektlfa"/></g><g id="freepik--character-2--inject-69" class="animable" style="transform-origin:346.836px 279.201px;animation:1s 1 forwards cubic-bezier(.36,-.01,.5,1.38) slideLeft;animation-delay:0s"><path d="M340.76 438.76c-2.21.26-61.14-12.3-63.08-14.21-.75-.71.58-9.4 2.49-19.86l.06-.33c.39-2.15 10.77-38.22 10.77-38.22l38.41 9.05L318.34 412l-.15.64s20.41 14.9 22.32 17.22 2.49 8.66.25 8.9z" style="transform-origin:309.837px 402.452px" class="animable" fill="#ad6359" id="elfmgdbdepabp"/><path d="M279.24 409.89c-1.38 8-2.18 14.07-1.56 14.66 1.94 1.91 60.87 14.47 63.08 14.21s1.65-6.55-.25-8.86c-1.17-1.41-9.2-7.49-15.3-12 4.09 3.31 10 11.23-15.25 3.13-15.57-5.03-25.29-8.84-30.72-11.14z" style="transform-origin:309.829px 424.327px" class="animable" fill="#263238" id="elt6extewb9of"/><path d="M358.27 205.82s3.29 28.17-2.52 34.59c0 0-8.94 63.83-12.62 82.52-4.86 24.67-19.73 78.87-19.73 78.87l-42-10.17s21.76-71.4 22-73c1.17-9.12 8-72.44 7.49-74-7.16-20.19 2.38-38.8 2.38-38.8z" style="transform-origin:320.299px 303.81px" class="animable" fill="#263238" id="elksej7bitgv"/><path d="M322.62 390.5c-5.85-1.62-4.14-1.26-10-2.8-2.87-.74-21.77-5.64-24.61-5.73-.06 0-.1.13 0 .16 2.55 1.25 21.56 5.72 24.45 6.4 5.91 1.38 4.24.9 10.17 2.19.05.03.1-.19-.01-.22z" style="transform-origin:305.318px 386.346px" class="animable" fill="#37474f" id="elzo6ngdubf1e"/><path d="M318.13 383.54l5.14-21.49 5.21-21.46 2.57-10.75.61-2.68c.18-.89.32-1.8.45-2.71l.79-5.46 2.93-21.9 5.84-43.8 1.47-10.94.75-5.48.21-1.37c0-.19.1-.53.12-.68s0-.44.06-.66c0-.92.06-1.84.08-2.76.1-7.36.06-14.72 0-22.09.15 7.37.3 14.73.31 22.1 0 .92 0 1.84-.05 2.76 0 .24 0 .47-.05.71s-.08.42-.12.68l-.2 1.37-.73 5.47-1.41 10.95-5.62 43.83c-.94 7.31-2 14.6-3 21.89l-.81 5.47c-.15.91-.29 1.82-.48 2.74l-.6 2.72-2.6 10.7-5.35 21.44z" style="transform-origin:331.4px 296.425px" class="animable" fill="#37474f" id="elw4lwjzm2vgj"/><path d="M355.75 240.41s-3.52 25.09-7 48.41l-35.49-83h45s3.3 28.18-2.51 34.59z" style="transform-origin:336.227px 247.32px" class="animable" fill="#37474f" id="elm5eevwhvrqn"/><path d="M427.74 405c-2.11.7-62.37.23-64.65-1.25-.87-.55 5.6-54.08 5.6-54.08l38.51 1.66-6.81 32.67s23 10.49 25.33 12.38 4.13 7.9 2.02 8.62z" style="transform-origin:395.843px 377.494px" class="animable" fill="#ad6359" id="elpnssb0ya66"/><path d="M427.74 405c-.93.31-13.08.39-26.61.26h-2.68c-2.31 0-4.64-.06-7-.1h-2.68l-2.65-.06c-1.35 0-2.67-.05-3.95-.09l-2.47-.07-2.37-.08q-1.74 0-3.33-.12c-.71 0-1.41-.05-2.08-.09-1.31-.05-2.51-.12-3.57-.19l-1.5-.11c-1.15-.08-2.08-.18-2.71-.28a3.38 3.38 0 01-1-.25c-.3-.19-.11-6.71.27-15.18 5.81 1.36 16.45 3.49 32.73 5.83 26.76 3.85 18.78-3.34 14.24-5.78l-.13-.08.85.4.14.06 1.55.74 1.7.81c.94.45 1.88.9 2.78 1.35s1.77.86 2.59 1.27c.49.25 1 .49 1.42.71.22.1.44.23.66.34s.58.29.85.44c.61.31 1.14.6 1.6.86a1.92 1.92 0 01.31.18 9 9 0 011.06.67c2.24 1.77 4.08 7.84 1.98 8.56z" style="transform-origin:395.827px 396.965px" class="animable" fill="#263238" id="ellerwsyptmxa"/><path d="M405.45 369l-40.34.49s10-73.16 9-76.62c-.41-1.35-49.34-45.74-49.34-45.74-17.55-17.3-11.51-41.26-11.51-41.26h45s.61 7 3 9.7c13.55 15.2 48.09 46.65 53.38 60.62 6.62 17.48-9.19 92.81-9.19 92.81z" style="transform-origin:364.258px 287.68px" class="animable" fill="#263238" id="elrxogm151js"/><path d="M313.34 221.35a30.09 30.09 0 001.43 7.89 39.88 39.88 0 003.15 7.36 59.17 59.17 0 009.57 12.79c3.68 3.9 7.7 7.49 11.69 11.09s8.08 7.1 12.16 10.61c-2.17-1.59-4.28-3.26-6.41-4.92s-4.17-3.4-6.24-5.14c-4.1-3.49-8.12-7.09-11.89-11a56.71 56.71 0 01-9.53-13.11 40.27 40.27 0 01-2.95-7.57 28.3 28.3 0 01-.98-8z" style="transform-origin:332.337px 246.22px" class="animable" fill="#37474f" id="elnp9q1hyr3sd"/><path d="M347.8 209.31a21.31 21.31 0 00.37 5.17 8.73 8.73 0 00.83 2.43c.5.7 1.08 1.35 1.64 2 2.28 2.6 4.65 5.14 7 7.68l14.15 15.24q7.08 7.62 14.1 15.31c4.65 5.13 9.3 10.28 13.75 15.62a98.75 98.75 0 013.21 4.12c.51.71 1 1.42 1.46 2.19a5.14 5.14 0 01.56 1.26 9.86 9.86 0 01.28 1.31 57.07 57.07 0 01.22 10.45c-.35 6.94-1.09 13.84-1.91 20.73s-1.79 13.75-2.82 20.61-2.19 13.7-3.39 20.53q1.64-10.28 3.05-20.58c1-6.86 1.9-13.73 2.69-20.62s1.48-13.79 1.78-20.7a57.27 57.27 0 00-.27-10.32 10.38 10.38 0 00-.27-1.23 4.51 4.51 0 00-.5-1.1c-.43-.73-.93-1.43-1.44-2.13-1-1.38-2.11-2.73-3.21-4.06-4.39-5.35-9-10.52-13.64-15.68s-9.31-10.28-14-15.38l-14.06-15.34c-2.32-2.58-4.64-5.15-6.88-7.8-.56-.67-1.12-1.33-1.62-2.05a8.77 8.77 0 01-.8-2.48 21.5 21.5 0 01-.28-5.18z" style="transform-origin:376.632px 281.635px" class="animable" fill="#37474f" id="elmahvf4779kn"/><path d="M402.31 359.37c-5.64-.17-4-.23-9.66-.31-2.76 0-20.9-.26-23.48.35-.06 0-.06.14 0 .16 2.58.6 20.72.38 23.48.34 5.64-.08 4-.14 9.66-.31.1 0 .1-.23 0-.23z" style="transform-origin:385.755px 359.494px" class="animable" fill="#37474f" id="elxop7t401cci"/><path d="M371.5 188.67l-7-.36a21.43 21.43 0 01-1.27-13c.2-1-2.62 4.62-2.29 12.81-7.38-.38-17.42-.9-26.19-1.43.09-3.43 0-6.62 0-6.62a37.6 37.6 0 01-1.93 6.51l-3.5-.22a132.82 132.82 0 00.45-14.61 46.91 46.91 0 01-5.4 14.25c-5.56-.4-9.21-.77-9-1 9.14-9 3.4-15 6.43-23.35 3.64-10 12.53-10.92 12.85-18.58.27-6.23.34-17.58 8.38-19.4a15.19 15.19 0 0116.67-1.91c12.06 5.69 5.7 24.5 6.25 28.47.79 5.66 3.29 7.83 4.8 14.33s-1.72 10.64-2.38 15 4.52 9.2 3.13 9.11z" style="transform-origin:343.55px 154.388px" class="animable" fill="#263238" id="elir7myu7tscc"/><path d="M315.27 183.63a21.89 21.89 0 003.11-5.24 11.28 11.28 0 00.41-5.84c-.23-2-.53-4.1-.56-6.23a16.24 16.24 0 011.1-6.35 14.23 14.23 0 013.76-5.27 39.08 39.08 0 015.08-3.7 23.19 23.19 0 004.73-3.75 11.31 11.31 0 002.65-5.4 10.55 10.55 0 01-2.07 5.87 21.06 21.06 0 01-4.61 4.29 47.26 47.26 0 00-4.75 3.79 13.67 13.67 0 00-3.28 4.78 15.83 15.83 0 00-1 5.75c0 2 .18 4 .29 6.11a21.15 21.15 0 010 3.18 9.44 9.44 0 01-.94 3.11 17.74 17.74 0 01-3.92 4.9z" style="transform-origin:325.41px 162.74px" class="animable" fill="#263238" id="el7proht60od"/><path d="M366.22 129.45a31.05 31.05 0 011.13 7.55c.13 2.55.13 5.1.11 7.63v3.79a18.9 18.9 0 00.3 3.64 20.21 20.21 0 002.91 6.68 29.77 29.77 0 011.78 3.47 18.14 18.14 0 011.1 3.82 25.89 25.89 0 01.25 3.92 16.28 16.28 0 01-.51 3.92c-.32 1.28-.78 2.48-1.17 3.65a19.74 19.74 0 00-.86 3.61 7.78 7.78 0 002.57 6.65 7.91 7.91 0 01-3.36-6.71 19.94 19.94 0 01.62-3.85c.32-1.25.73-2.44.95-3.64a20 20 0 000-7.28 17.48 17.48 0 00-1.05-3.46 28.51 28.51 0 00-1.72-3.27 38.23 38.23 0 01-1.83-3.42 15.76 15.76 0 01-1.19-3.81 20.12 20.12 0 01-.2-3.93c0-1.29.09-2.55.17-3.82.13-2.53.31-5.05.37-7.58a36.8 36.8 0 00-.37-7.56z" style="transform-origin:369.929px 158.615px" class="animable" fill="#263238" id="elwm7gmyu81bo"/><path d="M351.78 167.15c7.33 20.5 20.76 37.45 27.24 37.95 9.29.72 28.34-3.6 38.75-8.44 3.06-1.43-7.26-24.54-10.54-23-4 1.83-23.84 8.55-24.27 8.6-.93.13-18.21-16.9-22.4-21.35-7.68-8.17-12.76-4.91-8.78 6.24z" style="transform-origin:384.36px 180.766px" class="animable" fill="#ad6359" id="elqo095k3gu8m"/><path d="M413.3 197.82c3-.24 14.24-2.21 21.36-5.83 3.45-1.76 12.83-7.87 11.68-10.62s-4-1.21-4-1.21 3.58-3.17 2.17-5.84-5.84-.12-5.84-.12 3.44-3.52 1.85-6.08-5.63.74-5.63.74 3.3-3.07 1.1-4.63c-2.65-1.87-8.08 4.49-12 6.24-.89.4-18.6 6.79-18.6 6.79z" style="transform-origin:425.914px 180.855px" class="animable" fill="#ad6359" id="elqqiobi1i76"/><path d="M434.76 168.87c-4 4.66-6.56 6-12.35 7.79-.11 0-.08.21 0 .18 5.82-1.22 9.27-2.45 12.54-7.79.2-.26.05-.41-.19-.18z" style="transform-origin:428.691px 172.8px" class="animable" fill="#263238" id="el2kqkddlcjh3"/><path d="M438.85 174.07c-4.58 4.48-7.35 6-13.27 8.28-.08 0 0 .17.05.15 6-1.78 9.42-3.09 13.41-8.17.18-.23.01-.47-.19-.26z" style="transform-origin:432.331px 178.245px" class="animable" fill="#263238" id="ellpq5baq6bcn"/><path d="M441.9 180.51c-4.75 4-7.71 5.78-13.74 7.28a.12.12 0 000 .23c6.3-.94 10-3.11 13.81-7.35.29-.29.23-.41-.07-.16z" style="transform-origin:435.117px 184.197px" class="animable" fill="#263238" id="elqw8gjfq3cs8"/><path d="M404.69 176.68s4.19-6.46 6.66-8.89 15-8.11 16.38-5.47c1.79 3.4-4.81 8.1-8.33 10 0 0 4.12 7.87.12 12.27s-14.83-7.91-14.83-7.91z" style="transform-origin:416.361px 173.588px" class="animable" fill="#ad6359" id="elfynk96fpdvp"/><path d="M427.92 163.42c-.62 4.27-5.41 6.44-8.7 8.52a.35.35 0 00-.05.58c1.51 3.42 2.64 8.68.59 12-.06.09.08.19.15.1 2.69-3.31 2-8.57.1-12.2 3.41-2.08 8.12-4.47 7.95-9.05l-.04.05z" style="transform-origin:423.502px 174.013px" class="animable" fill="#263238" id="elf1f9xywqkv8"/><path d="M392.93 178l5.62 25.92s-16.9 4.89-22.25 1.64-19.21-21-24.17-36 .22-18.12 11.16-6.42 19.29 18.67 19.72 18.58 9.92-3.72 9.92-3.72z" style="transform-origin:374.395px 181.347px" class="animable" fill="#ffc727" id="el7eqs579nm2d"/><path d="M388.6 180.79c0-.08-.16 0-.15 0a212.85 212.85 0 004.65 22.89c0 .08.16 0 .14 0a215.1 215.1 0 00-4.64-22.89z" style="transform-origin:390.846px 192.235px" class="animable" fill="#263238" id="elo4br8ziyhv"/><path d="M384.48 206.58c-3.31.25-6.38.07-8.17-1-5.35-3.25-19.21-21-24.18-36-3.59-10.82-1.88-15.46 3.48-12.79z" style="transform-origin:367.358px 181.366px" class="animable" opacity=".1" id="elr6f0gc0soji"/><path d="M361.17 195.6l-2.9 10.23h-45s10-36.32 27.1-47.49c8.55-5.59 14.38-3.06 18.11 3.3.94 1.61 8 17.18 8.33 23.85a11 11 0 01-5.64 10.11z" style="transform-origin:340.046px 180.54px" class="animable" fill="#ffc727" id="elrd5bclcul97"/><path d="M359.13 202.79l-.33 1.21h-45q.15-.53.36-1.17zm-43.92-3.3c-.13.4-.26.79-.39 1.16h44.92l.33-1.16zm1.17-3.31c-.15.4-.29.78-.42 1.16h44.72l.33-1.16zm1.25-3.31c-.16.39-.31.78-.46 1.17h46.11a10.42 10.42 0 001.09-1.17zm1.31-3.3l-.47 1.16h47.26a8 8 0 00.47-1.16zm1.42-3.31l-.51 1.16h46.84a8.71 8.71 0 00.07-1.16zm46.05-3.26h-44.53c-.19.39-.37.78-.55 1.17h45.29c-.06-.42-.12-.81-.21-1.17zm-.82-3.31h-42.07l-.6 1.17h43c-.11-.43-.22-.86-.33-1.22zm-1-3.3h-39.3l-.65 1.16h40.29zm-1.2-3.31h-36.16c-.24.39-.48.77-.71 1.17h37.26c-.14-.44-.29-.83-.44-1.25zm-1.29-3.31h-32.71c-.27.39-.54.78-.79 1.17h33.92zm-1.39-3.3h-28.88c-.31.38-.61.76-.9 1.16h30.23zm-1.49-3.31H334.7c-.37.38-.72.77-1.08 1.17h26.09zm-2-3.31h-18.93q-.71.55-1.38 1.17H358c-.23-.46-.5-.85-.79-1.22zm-3.58-3.3h-10a20 20 0 00-2.24 1.16h13.84a9.36 9.36 0 00-1.61-1.21z" style="transform-origin:340.28px 180.25px" class="animable" fill="#030402" opacity=".1" id="el6aqsobd5lj4"/><path d="M356.4 192.15a24.28 24.28 0 00-5.07.93c-.83.26-1.65.58-2.47.93-.41.17-.82.32-1.23.47a3.85 3.85 0 01-1.31.28v.09a5.72 5.72 0 001.24 0 6.27 6.27 0 001.2-.26c.85-.25 1.69-.57 2.53-.83 1.7-.54 3.41-1.08 5.12-1.44.07.02.07-.18-.01-.17z" style="transform-origin:351.391px 193.517px" class="animable" fill="#263238" id="el03s2400x9gps"/><path d="M360.39 194.63a25.11 25.11 0 00-4.14-.55 16.22 16.22 0 00-2.09.06c-.33 0-.67.06-1 .11s-.73.17-1.1.2v.1a8.88 8.88 0 011 0h3.09c1.39 0 2.77 0 4.16.13.15.12.15-.04.08-.05z" style="transform-origin:356.248px 194.397px" class="animable" fill="#263238" id="elytdlo3zvyqe"/><path d="M342.06 156.29c-22.26 2.34-39.73 9.43-45.78 12.65-3.95 2.1-25.92 17.6-30.93 22.2-2.45 2.25 13.09 20.73 16 18.63 3.9-2.85 28.16-24.69 28.5-25C311.13 183.76 337 168 342.43 165c9.02-4.95 9.51-9.75-.37-8.71z" style="transform-origin:307.211px 183.041px" class="animable" fill="#ad6359" id="elbhs2ri3vlc7"/><path d="M263.85 232.17a4 4 0 01-2.54-3.75 5.91 5.91 0 01-4-.48c-2.12-1.19-1.17-5-1.17-5a7.32 7.32 0 01-4.12-1.17c-1.91-1.35-1.51-5.35-1.51-5.35a6.39 6.39 0 01-3-3.32c-1.35-3.86 2.57-8.73 5-11.85s12.36-9.66 14.12-11.1l14.6 19.65s-1.49 13.09-4.91 16.35c-2.78 2.71-9.54 7.03-12.47 6.02z" style="transform-origin:264.232px 211.235px" class="animable" fill="#ad6359" id="elk63468y3vjq"/><path d="M261.74 228.53c3.75-2.18 6.66-5.36 9.74-8.36.07-.07 0-.18-.1-.11-3 3-6.62 5.41-9.77 8.31-.09.08.03.22.13.16z" style="transform-origin:266.543px 224.291px" class="animable" fill="#263238" id="eld9ibostbg87"/><path d="M256.47 223.05a10.94 10.94 0 002.16-2q1.06-1.16 2.1-2.34 2.07-2.38 4-4.86c.05-.08-.05-.18-.11-.11-1.38 1.58-2.78 3.14-4.22 4.66-.72.76-1.45 1.51-2.18 2.26a13.38 13.38 0 00-2 2.22.15.15 0 00.25.17z" style="transform-origin:260.469px 218.416px" class="animable" fill="#263238" id="el7rypt87sq0r"/><path d="M250.59 216.32a7.72 7.72 0 001.85-1.93c.61-.74 1.23-1.47 1.85-2.2 1.24-1.46 2.48-2.91 3.78-4.33a.07.07 0 00-.11-.1c-1.32 1.43-2.66 2.84-4 4.28-.65.71-1.28 1.42-1.92 2.14a7.19 7.19 0 00-1.56 2.08s.08.08.11.06z" style="transform-origin:254.285px 212.03px" class="animable" fill="#263238" id="elb61gwk9uphd"/><path d="M292.38 204.21l-18.31-21.92s16.81-11.39 22.05-14.55 26.53-10.49 42.06-11.74 15.13 3.68 1.32 11.42-23.73 14.34-24 14.66c-.9.92-23.12 22.13-23.12 22.13z" style="transform-origin:311.958px 180.008px" class="animable" fill="#ffc727" id="elh0xaj3jqmim"/><path d="M296.32 197.76c.06.06.17 0 .12-.1a212.61 212.61 0 00-15-17.55c-.06-.06-.16 0-.11.1a214.15 214.15 0 0014.99 17.55z" style="transform-origin:288.885px 188.935px" class="animable" fill="#263238" id="elz21n4o7xvwd"/><path d="M316.33 181.37c1.75-1.23 3.55-2.4 5.35-3.55s3.64-2.26 5.45-3.39 3.68-2.19 5.54-3.25 3.73-2.1 5.63-3.08c-1.75 1.24-3.55 2.4-5.35 3.56s-3.63 2.25-5.45 3.38-3.67 2.19-5.54 3.25-3.72 2.1-5.63 3.08z" style="transform-origin:327.315px 174.735px" class="animable" fill="#263238" id="elrhr4045ckx"/><path d="M332.83 171.52a14.19 14.19 0 012.27-1 18.65 18.65 0 012.39-.64 6.2 6.2 0 01-1.08.63 11 11 0 01-3.58 1z" style="transform-origin:335.16px 170.7px" class="animable" fill="#263238" id="elq7k9qejied"/><path d="M348.75 160.12c.3.93 5.31 6.7 9.61 6.15 1.41-.18.76-7.88.76-7.88l.08-.58 1.14-8.11-9.85-5.25-1.41-.69s-.17 2.24-.35 5v.85c0 .42-.06.85-.08 1.27s0 .64 0 1v1a52.92 52.92 0 00.1 7.24z" style="transform-origin:354.455px 155.033px" class="animable" fill="#ad6359" id="elt93t357k4y"/><path d="M348.73 148.79a16.43 16.43 0 0010.47 9l1.14-8.11-9.85-5.25-1.41-.69s-.17 2.26-.35 5.05z" style="transform-origin:354.535px 150.765px" class="animable" fill="#263238" id="elbogrunzw6c8"/><path d="M369.73 134.18c4.78 13.55-2.79 17.95-5.72 19-2.65.93-11.81 3.77-18-9.22s-1.37-19.49 4.59-22 14.4-1.34 19.13 12.22z" style="transform-origin:357.2px 137.5px" class="animable" fill="#ad6359" id="el087mpek1g08l"/><path d="M367 133.67a8.21 8.21 0 01-.88.46 1.55 1.55 0 01-1 .3.51.51 0 01-.4-.48 1.26 1.26 0 01.78-1 1.8 1.8 0 011.32-.24.55.55 0 01.18.96z" style="transform-origin:365.966px 133.553px" class="animable" fill="#263238" id="eltabnfqd4pw"/><path d="M357.85 137c.33-.08.62-.22.94-.33a1.68 1.68 0 00.89-.52.51.51 0 00-.09-.62 1.26 1.26 0 00-1.27-.13 1.87 1.87 0 00-1.08.81.55.55 0 00.61.79z" style="transform-origin:358.462px 136.15px" class="animable" fill="#263238" id="el9ozn1mix76"/><path d="M360.69 138.62s-.06.07-.05.11c.31.93.51 2-.24 2.61 1.01-.41.73-1.89.29-2.72z" style="transform-origin:360.744px 139.98px" class="animable" fill="#263238" id="elujsn9h66nfk"/><path d="M359.55 137.9c-1.54.34-.74 3.39.68 3.08s.62-3.37-.68-3.08z" style="transform-origin:359.848px 139.441px" class="animable" fill="#263238" id="elllq712ybmgq"/><path d="M359 138.21c-.23.25-.41.62-.72.73s-.73-.11-1-.35h-.05c.15.58.53 1.13 1.18 1.05s.87-.69.86-1.32c-.05-.07-.19-.2-.27-.11z" style="transform-origin:358.25px 138.914px" class="animable" fill="#263238" id="el9u8t0hnowmf"/><path d="M365.73 136.66s.08 0 .09.07c.24 1 .66 2 1.6 2.08v.05c-1.07.14-1.62-1.26-1.69-2.2z" style="transform-origin:366.575px 137.765px" class="animable" fill="#263238" id="elg2l32k73uoq"/><path d="M366.3 135.44c1.48-.53 2.44 2.48 1.07 3s-2.32-2.55-1.07-3z" style="transform-origin:366.874px 136.938px" class="animable" fill="#263238" id="el5lzhglfs76t"/><path d="M366.94 135.42c.32.08.67.3 1 .23s.55-.48.7-.86h.06a1.15 1.15 0 01-.43 1.52 1.18 1.18 0 01-1.44-.65c-.06-.09-.02-.28.11-.24z" style="transform-origin:367.817px 135.578px" class="animable" fill="#263238" id="elvk98fuvmkh"/><path d="M362.45 146c.28.18.57.44.93.39a2.45 2.45 0 001-.46h.05a1.33 1.33 0 01-1.11.78 1 1 0 01-.93-.69c-.05-.02.02-.08.06-.02z" style="transform-origin:363.402px 146.32px" class="animable" fill="#263238" id="el1aydlhmw4ds"/><path d="M365.47 141.48s.58 1.36.76 2c0 .06-.13.13-.35.21a3.26 3.26 0 01-3.39-.34c-.07 0 0-.15.07-.12a4.94 4.94 0 003.11 0c0-.2-1.07-2.29-1-2.33a5.92 5.92 0 011.6-.07c-1.12-2.86-2.69-5.52-3.77-8.39 0-.1.11-.17.16-.09a49.72 49.72 0 014.45 8.87c.17.43-1.34.3-1.64.26z" style="transform-origin:364.792px 138.165px" class="animable" fill="#263238" id="elgz10vd8n1m4"/><path d="M365.71 143.49a3.9 3.9 0 01-1.16 1.66 1.76 1.76 0 01-1 .39c-.82 0-1-.65-1.1-1.29a4.25 4.25 0 01.06-1 5.16 5.16 0 003.2.24z" style="transform-origin:364.076px 144.395px" class="animable" fill="#263238" id="elwsd034l5crn"/><path d="M364.55 145.15a1.76 1.76 0 01-1 .39c-.82 0-1-.65-1.1-1.29a1.88 1.88 0 012.1.9z" style="transform-origin:363.5px 144.866px" class="animable" fill="#ff9cbd" id="elh0ibaxn56f6"/><path d="M346.31 144.16c3.31-1 1.59-6.25 1.59-6.25s3.64-1.57 1.94-7.71a9.61 9.61 0 008.32 2.15c1.13-.19-3.39-1.8-3.39-1.8s5.6 2.5 13.13-1.6c.54-.29-3.43-8.36-10.67-9.19s-12.37 2.65-15 7.89a8 8 0 00-2.09 7.27c.93 4.54 4.86 9.65 6.17 9.24z" style="transform-origin:353.954px 131.91px" class="animable" fill="#263238" id="el7pu4gagzobr"/><path d="M349.37 143.66s-4.16-3.56-5.85-2 2.21 7.3 4.75 7.57a2.43 2.43 0 002.83-2.08z" style="transform-origin:347.104px 145.266px" class="animable" fill="#ad6359" id="elogwgm3ww6rq"/><path d="M344.68 143.3v.07a6.15 6.15 0 014 2.93 1.34 1.34 0 00-2 .14s0 .1.07.08a1.49 1.49 0 011.72.09 7.56 7.56 0 011.1 1.09c.11.13.35 0 .25-.17-.51-2.11-2.82-4.59-5.14-4.23z" style="transform-origin:347.262px 145.509px" class="animable" fill="#263238" id="eldgny7dczhfr"/></g><g id="freepik--character-3--inject-69" class="animable" style="transform-origin:540.353px 215.135px;animation:1s 1 forwards cubic-bezier(.36,-.01,.5,1.38) slideRight;animation-delay:0s"><path d="M516.85 123.48c6.74 17.63 25.44 41 30.11 42.71 7.42 2.7 30.95-6.8 39.87-11.54 2.68-1.43-8.78-25.38-11.51-23.63-5.79 3.71-21.63 10.34-23.7 10.18-1.38-.11-16.14-13.32-25.3-21.09-11.59-9.83-11.24-1.26-9.47 3.37z" style="transform-origin:551.579px 141.125px" class="animable" fill="#d3766a" id="elvdzts6105te"/><path d="M532 152.33l8.64-22.08a134.6 134.6 0 00-17.9-14.33c-8.9-5.66-9.35 3.43-2.63 16S532 152.33 532 152.33z" style="transform-origin:528.075px 133.266px" class="animable" fill="#ffc727" id="el9co3vd1wf8r"/><path d="M529.19 146.37c1.67-4.85 3.68-9.59 5.78-14.27a78.55 78.55 0 011.87-3.93h.06c-.88 2.4-1.87 4.76-2.83 7.14s-2 4.75-3 7.1c-.58 1.33-1.17 2.65-1.78 4-.04.05-.12.02-.1-.04z" style="transform-origin:533.045px 137.303px" class="animable" fill="#263238" id="elvbt6elaqc4l"/><path d="M537 139.5l-5 12.84s-5.17-7.83-11.89-20.41c-3.65-6.85-5.19-12.65-4.4-15.62 5.41 5.84 15.48 16.78 21.29 23.19z" style="transform-origin:526.254px 134.325px" class="animable" opacity=".2" id="el5msnv7evczc"/><path d="M579 155.18c-3.13-.8-6.84-21.05-4.55-23.45a12.91 12.91 0 012.77-1.83 46.92 46.92 0 007.21-11.67c2-5.11 4.4-12.92 7.18-11.94 4.07 1.41 2.23 11.64.82 17.46 3.13-.88 5.91-1.35 7.63-1 5.7 1.07 7.36 22.9 2.79 26.63S582.1 156 579 155.18z" style="transform-origin:589.612px 130.763px" class="animable" fill="#d3766a" id="el2qgb3e66r4s"/><path style="transform-origin:600.4px 173.99px" class="animable" fill="#263238" transform="rotate(-4.42)" d="M599.24 38.64h2.32v270.7h-2.32z" id="elaby4dizvavi"/><path d="M589.22 122.13c-1.14 2.79 2.81 2.54 2.81 2.54s-5.59 1.73-5.65 5.07 4.7 2.73 5 2.7c-.3.1-5.39 1.82-5.1 5.18s5 2.19 5.28 2.11c-.25.17-3.52 2.56-2.72 5.06 1.36 4.3 9.89-1.58 13.45-.77 0 0-1.83 6.54-1.81 6.73 0 0 9.37-5.78 10.2-10.64a3.16 3.16 0 00-1.87-3.48s2.85-1.45 2.71-4.1c-.08-1.36-2.32-2.45-2.32-2.45a3.94 3.94 0 002-3.61c-.21-1.87-2.42-2.68-2.42-2.68s1.58-2.2.74-4.05c-1.68-3.74-17.85-3.58-20.3 2.39z" style="transform-origin:598.897px 133.99px" class="animable" fill="#d3766a" id="el89723frtegq"/><path d="M608.45 123.61v-.08a28.11 28.11 0 00-16.65 1.13c-.16.07-.12.37.07.33a57.71 57.71 0 0116.58-1.38z" style="transform-origin:600.075px 123.88px" class="animable" fill="#263238" id="elhfsmvmva6qf"/><path d="M609.32 130.05c.07 0 .07-.1 0-.12a26.28 26.28 0 00-18.09 2.36c-.19.11-.25.4 0 .29 3.85-1.8 12.88-2.94 18.09-2.53z" style="transform-origin:600.218px 130.937px" class="animable" fill="#263238" id="eli1heiuvxqkf"/><path d="M591.29 140.08c5.45-2.81 11.26-3.58 17.34-3.52.08 0 .07-.11 0-.13-3-.84-6.84-.47-9.83.07a16.09 16.09 0 00-7.61 3.39c-.09.11-.02.25.1.19z" style="transform-origin:599.918px 138.015px" class="animable" fill="#263238" id="el6vdnk79jsvg"/><path d="M591.94 124.62c-.2.08.14.28-.06.37-.83.38-5.62 3.09-5.21 5 .34 1.54 2.64 2.16 3.62 2.05l2.45-.28-2.21 1.11a10.28 10.28 0 00-2.66 1.91 3.63 3.63 0 00-1.21 2.7 2.06 2.06 0 001.66 2 6.08 6.08 0 003.12-.23l2.8-.84-2.36 1.71a9.88 9.88 0 00-1.77 1.65 3.93 3.93 0 00-1 2.05 1.84 1.84 0 00.86 1.76 4.06 4.06 0 002.28.3 32.38 32.38 0 005-1.09c.83-.22 1.66-.45 2.5-.63a6.2 6.2 0 012.57-.15 6.53 6.53 0 00-2.51.38c-.82.25-1.62.53-2.43.81a27.88 27.88 0 01-5 1.39 4.8 4.8 0 01-2.75-.28 2.63 2.63 0 01-1.37-2.55 4.78 4.78 0 011.12-2.57 10.48 10.48 0 011.94-1.88l.44.87a7.28 7.28 0 01-3.69.31 3 3 0 01-1.72-1.06 3.35 3.35 0 01-.68-1.89 4.59 4.59 0 011.53-3.42 11.37 11.37 0 013-2l.25.84c-1.25.1-3.89-.31-4.72-2.63-.66-3.23 5.12-5.39 6.21-5.71z" style="transform-origin:593.995px 135.648px" class="animable" fill="#263238" id="eltmkb3qjbbz"/><path d="M592 124.67a5.89 5.89 0 01-1.78-.52 1.37 1.37 0 01-.83-1.14 2.78 2.78 0 01.52-1.53c.33-.52.7-1 1.1-1.56a4.74 4.74 0 00-1.62 1.16 2.84 2.84 0 00-.85 2 2 2 0 00.47 1.11 2 2 0 001 .59 3.23 3.23 0 001.99-.11z" style="transform-origin:590.27px 122.404px" class="animable" fill="#263238" id="el8amfvijrag"/><path d="M499.7 324.14s-6.54 36.77-6.55 36.79c-1 7.07-1.8 13.29-1.9 16.55a4.89 4.89 0 00.21 2.26c1.9 1.73 58.18 11.58 60.25 11.26s1.34-6.27-.54-8.39-21.75-15.53-21.75-15.53l6.06-36.83z" style="transform-origin:522.08px 357.574px" class="animable" fill="#d3766a" id="elk2jjn3xctp"/><path d="M494.21 353.33s-1 7.58-1.06 7.6c-1 7.07-1.8 13.29-1.9 16.55a9.49 9.49 0 00.21 2.26c1.9 1.73 58.18 11.58 60.25 11.26s1.34-6.27-.54-8.39-21.75-15.53-21.75-15.53l1.19-7.7z" style="transform-origin:522.103px 372.169px" class="animable" fill="#ebebeb" id="el64obw5c86ik"/><path d="M551.7 391.31c-2.11.32-59.31-9.67-61.25-11.43-.74-.66-.06-9.63 2.43-19.25l36.86 6.49s19.48 13.5 21.4 15.66 2.68 8.22.56 8.53z" style="transform-origin:521.571px 375.974px" class="animable" fill="#ffc727" id="elv80q3wgq2lo"/><path d="M551.28 388.88c-9.55-1.91-48.23-8.71-57.82-9.88-.07 0-.08.05 0 .06 9.42 2.1 48.17 8.59 57.8 10 .2 0 .22-.14.02-.18z" style="transform-origin:522.412px 384.03px" class="animable" fill="#263238" id="el4rzwdndik6f"/><path d="M547.82 380.08a7.8 7.8 0 00-6.14 1.34 7.55 7.55 0 00-3 4.74c0 .06.1.08.12 0a9 9 0 019-6c.08.04.1-.07.02-.08z" style="transform-origin:543.275px 383.069px" class="animable" fill="#263238" id="elj40461ad4fh"/><path d="M532.58 368.6c-3.82-.72-8.51-.14-11.44 2.58-.12.1 0 .26.16.23a53.35 53.35 0 0111.27-2.32.25.25 0 00.01-.49z" style="transform-origin:526.933px 369.865px" class="animable" fill="#263238" id="el4npknhvukmi"/><path d="M535.35 370.27c-3.83-.72-8.52-.14-11.45 2.58-.12.11 0 .27.16.23a53.35 53.35 0 0111.27-2.32.25.25 0 00.02-.49z" style="transform-origin:529.696px 371.536px" class="animable" fill="#263238" id="elx6dfwr2pm4"/><path d="M538.11 372c-3.83-.73-8.52-.15-11.45 2.57-.11.11 0 .27.16.23a54 54 0 0111.27-2.32.24.24 0 00.02-.48z" style="transform-origin:532.477px 373.259px" class="animable" fill="#263238" id="el9j5bhun614"/><path d="M540.87 373.62c-3.83-.72-8.52-.15-11.45 2.58-.11.1 0 .26.16.22a54 54 0 0111.27-2.32.24.24 0 00.02-.48z" style="transform-origin:535.238px 374.881px" class="animable" fill="#263238" id="elxe7trpawfcj"/><path d="M502.81 168.83s7 93.1 7.23 94.42c0 .12-18.79 95.17-18.79 95.17l40.75 7.06s13.47-91.62 13.59-101.74c.21-17.34-2.32-69.36-8.7-94.91z" style="transform-origin:518.426px 267.155px" class="animable" fill="#455a64" id="el2sk0xmekl2q"/><path d="M531.87 355.49c-1-.42-25.26-5.15-34.77-6.09-.1 0-.34.23 0 .35 2.58.91 34.13 6.05 34.74 6 .1.01.16-.22.03-.26z" style="transform-origin:514.434px 352.575px" class="animable" fill="#263238" id="ellgnzwpam4fn"/><path d="M512.16 176c-.15-1.08-.34-2.16-.53-3.24 0-.16-.3-.12-.28.05.34 4.66 1 9.31 1.5 14s6.42 74.81 6.2 77.11a53.13 53.13 0 01-1.25 6.73c-1.07 4.54-13.22 63.85-15.52 72.91-.29 1.14-.52 2.28-.75 3.43a.11.11 0 00.21 0c1.59-4.44 18.5-78.71 18.58-83.29s-6.87-78.27-8.16-87.7z" style="transform-origin:510.925px 259.863px" class="animable" fill="#263238" id="elp5p5qb26z1g"/><path d="M545.34 248.78l-38.29-23.85c-2-26.17-4.24-56.1-4.24-56.1h34.06c5.13 20.48 7.95 57.74 8.47 79.95z" style="transform-origin:524.075px 208.805px" class="animable" fill="#263238" id="eladw80e2rpjq"/><path d="M558.47 316.34s-2.3 37.29-2.3 37.32c-.48 7.13-.77 13.39-.62 16.64a.07.07 0 000 .05 5 5 0 00.37 2.24v.05c2 1.58 58.9 7.05 60.95 6.57s.85-6.35-1.19-8.32-22.88-13.81-22.88-13.81l1.94-37.3z" style="transform-origin:586.722px 347.79px" class="animable" fill="#d3766a" id="elkosqdgm04n"/><path d="M556.64 346s-.47 7.63-.47 7.66c-.48 7.13-.77 13.39-.62 16.64a.07.07 0 000 .05 9.93 9.93 0 00.37 2.24v.05c2 1.58 58.9 7.05 60.95 6.57s.85-6.35-1.19-8.32-22.88-13.81-22.88-13.81l.58-7.76z" style="transform-origin:586.722px 362.62px" class="animable" fill="#ebebeb" id="el47zkx3kdr4u"/><path d="M617.17 379.11c-2.07.52-60-3.91-62.07-5.47-.8-.59-1-9.58.56-19.39l37.32 2.9s20.69 11.56 22.81 13.52 3.45 7.92 1.38 8.44z" style="transform-origin:586.348px 366.701px" class="animable" fill="#ffc727" id="el8m5avzz6ita"/><path d="M616.52 376.73c-9.69-1-48.85-4-58.5-4.25-.08 0-.09 0 0 .06 9.58 1.18 48.77 3.9 58.5 4.35.19.01.2-.14 0-.16z" style="transform-origin:587.311px 374.685px" class="animable" fill="#263238" id="elvyspi4e83hd"/><path d="M612.23 368.31a7.83 7.83 0 00-6 1.92 7.6 7.6 0 00-2.57 5c0 .06.11.07.12 0a9 9 0 018.43-6.83.06.06 0 00.02-.09z" style="transform-origin:607.951px 371.773px" class="animable" fill="#263238" id="elqcp07o77n1e"/><path d="M596 358.35c-3.88-.35-8.49.68-11.14 3.67-.11.12.06.26.18.21a54 54 0 0111-3.39.25.25 0 00-.04-.49z" style="transform-origin:590.525px 360.262px" class="animable" fill="#263238" id="el54k2o4jwfj5"/><path d="M598.86 359.75c-3.88-.35-8.49.68-11.14 3.67-.11.12.06.26.18.21a53.37 53.37 0 0111-3.39.25.25 0 00-.04-.49z" style="transform-origin:593.385px 361.662px" class="animable" fill="#263238" id="elfyzeuts7n5j"/><path d="M601.77 361.15c-3.88-.35-8.49.68-11.14 3.67-.11.11.06.26.18.21a54 54 0 0111-3.4.24.24 0 00-.04-.48z" style="transform-origin:596.313px 363.062px" class="animable" fill="#263238" id="elgveup5q15oj"/><path d="M604.68 362.55c-3.88-.35-8.49.67-11.14 3.67-.11.11.06.26.18.21a54 54 0 0111-3.4.24.24 0 00-.04-.48z" style="transform-origin:599.222px 364.462px" class="animable" fill="#263238" id="elxsgzxzpg8d"/><path d="M554.26 351.26l41.92 3.84s11.57-112.35 7.49-124.37c-5.39-15.92-75.41-38.37-73.64-40.63 0 0 3.34-13.48 6.85-21.27h-51.45c-6.93 20.43-3 34.89-.61 39 11.24 19.17 80.11 39.11 79.41 44.17-1.12 7.9-9.97 99.26-9.97 99.26z" style="transform-origin:543.034px 261.965px" class="animable" fill="#455a64" id="el9923zv90d86"/><path d="M593.31 345.72c-1-.32-25.64-2.72-35.19-2.75-.1 0-.32.26 0 .35 2.65.66 34.55 2.77 35.15 2.68.13 0 .14-.25.04-.28z" style="transform-origin:575.665px 344.486px" class="animable" fill="#263238" id="elioblzsyq9h"/><path d="M535.84 189.42h-2c-.67 0-1.33.12-2 .2-1.29.16-2.56.43-3.83.71a38 38 0 00-7.45 2.38c-.08 0 0 .16.06.14 2.56-.52 5.08-1.18 7.63-1.71 1.24-.25 2.48-.45 3.72-.7.65-.13 1.31-.27 2-.38s1.29-.32 1.94-.44c.09.02.09-.21-.07-.2z" style="transform-origin:528.248px 191.136px" class="animable" fill="#263238" id="elhv0guszaqjb"/><path d="M535.92 168.88c0-.06-.08-.06-.09 0a94.54 94.54 0 01-2 13.49 5.83 5.83 0 01-1.29 2.79c-.4.41-.92.75-1.45.37a1.82 1.82 0 01-.61-1.54 36.94 36.94 0 01.46-3.77c.14-1.19.24-2.38.34-3.57.24-2.87.23-4.74.33-7.61 0-.1-.15-.1-.15 0-.17 3-.63 4.94-1 7.89-.19 1.43-.4 2.85-.6 4.28-.18 1.23-.62 2.68-.22 3.91a2.25 2.25 0 001.71 1.55l-.09.22-.44 1.07c-.28.7-.54 1.42-.85 2.11 0 .1.08.2.15.11a6 6 0 001.21-2 9.58 9.58 0 00.47-1.52 3.3 3.3 0 002.21-2 12.09 12.09 0 00.91-3.29c.26-1.45.47-2.91.65-4.37a44.74 44.74 0 00.35-8.12z" style="transform-origin:532.724px 179.525px" class="animable" fill="#263238" id="el59hr5tae5ls"/><path d="M512.31 172.77c0-.16-.28-.14-.32 0-.26 1.17-.35 2.38-.52 3.57s-.36 2.33-.62 3.47a12.67 12.67 0 01-2.46 5.58c-2.87 3.33-7.79 4.2-12 4.13-.1 0-.09.14 0 .15 3.68.4 7.53.63 10.79-1.45 3.06-2 4.25-5.32 4.8-8.75a20.45 20.45 0 00.33-6.7z" style="transform-origin:504.383px 181.297px" class="animable" fill="#263238" id="ell87ef5e6il"/><path d="M541.58 195.34a51.5 51.5 0 00-6-2.82c-2-.81-4.09-1.42-6.11-2.2-.08 0-.14.11-.06.14 2 .9 4 1.95 6 2.81a51.15 51.15 0 006.11 2.2c.09.02.13-.1.06-.13z" style="transform-origin:535.494px 192.896px" class="animable" fill="#263238" id="el1gi5hppyg7o"/><path d="M551.09 236.5c-2-1.18-34.78-15.27-36.81-16.37s-4.1-2.3-6.12-3.51a104.3 104.3 0 01-11.16-7.54 24 24 0 01-7.82-9.91 33.66 33.66 0 01-1.83-12.52 96.07 96.07 0 011.48-16.32.08.08 0 00-.15 0 124.29 124.29 0 00-2 14.78 37.28 37.28 0 001.14 13 22.69 22.69 0 006.95 10.45 74.1 74.1 0 0011.23 7.76c2.31 1.4 4.67 2.7 7.07 3.94s35.46 15.64 38 16.47c.07.05.14-.16.02-.23z" style="transform-origin:518.845px 203.508px" class="animable" fill="#263238" id="elemyagamvtqv"/><path d="M572.2 247c-.58-1.16-27.07-13.5-29.24-14.05-.1 0-.21.36-.12.4 1.45.6 28.13 13.43 28.51 14 .8 1.2-7.55 89.15-7.54 90a.21.21 0 00.42 0c.48-1.53 8.65-89 7.97-90.35z" style="transform-origin:557.523px 285.255px" class="animable" fill="#263238" id="elui74m2h1clk"/><path d="M480.48 185.45c.15.15 59.75-3.3 60.27-3.94.73-.9-15.61-59.06-22.09-66.83-1.39-1.67-5.75-2-9.43-1.35a16.87 16.87 0 00-2.82.69h-.09a7 7 0 00-2.05 1.11c-9.94 8.63-16.91 33.94-18.58 42.63-2.76 14.35-5.69 27.15-5.21 27.69z" style="transform-origin:510.601px 149.237px" class="animable" fill="#ffc727" id="elzlm9u7o6r2"/><path d="M535.12 159.71a6.26 6.26 0 00-1.22.23 7.61 7.61 0 00-2.69 1.47 13.29 13.29 0 00-2.66 3.28c-.08.12-.15.24-.22.37-.3.5-.57 1-.84 1.55l-.13.27a2.39 2.39 0 00-.13.28c-.88 1.79-1.65 3.64-2.49 5.48a17.67 17.67 0 01-3.64 5.64 5.1 5.1 0 01-3.1 1.42 10.24 10.24 0 01-3.35-.46 17.85 17.85 0 01-5.69-3.46l-.85-.73c-.26-.21-.51-.43-.76-.65-1-.88-2-1.75-3.07-2.55l-.41-.3-.44-.32a11.84 11.84 0 00-5.36-2.3 13.73 13.73 0 00-1.57-.05c-.53.06-1.05.16-1.57.25a11.39 11.39 0 00-2.89 1.25c-.29.18-.57.36-.85.57a38.47 38.47 0 00-3.42 2.91l-.59.53-.19.17a19.34 19.34 0 01-5.37 3.45c0-.21.08-.42.13-.64a20.78 20.78 0 004.71-3.37l.53-.49c1.14-1.05 2.25-2.17 3.52-3.13a9.34 9.34 0 01.82-.58l.22-.15a9.82 9.82 0 016.61-1.53 12.41 12.41 0 015.73 2.75l.31.24c.16.13.32.26.48.41 1 .85 2 1.75 2.95 2.64l.73.66c.27.24.54.48.82.71a15.71 15.71 0 005.57 3.39 8.72 8.72 0 003.2.36 4.61 4.61 0 002.77-1.39 18.07 18.07 0 003.29-5.57c.77-1.81 1.49-3.67 2.33-5.48a2.39 2.39 0 01.13-.28c0-.12.1-.23.16-.35.33-.67.68-1.34 1.07-2a3.79 3.79 0 01.2-.34 13.71 13.71 0 012.62-3.24 7.87 7.87 0 013.08-1.69 9.83 9.83 0 011.2-.25c.12.31.2.68.32 1.02zm3.42 12.14h-.86a13.09 13.09 0 01-1.53-.36 10.36 10.36 0 01-3.45-2c-.3-.26-.59-.54-.87-.82s-.56-.58-.83-.88c-.86-1-1.66-2-2.45-3-.21-.28-.42-.56-.64-.83-.34-.45-.69-.91-1-1.35A17.87 17.87 0 00522 158a9.82 9.82 0 00-3.18-1.13 5.17 5.17 0 00-3.32.75 17.77 17.77 0 00-4.71 4.8c-1.33 1.78-2.56 3.62-3.92 5.33a22.14 22.14 0 01-3 3.14c-.15.13-.31.25-.47.37a9.45 9.45 0 01-1.26.83 7.5 7.5 0 01-2.93.89 8.86 8.86 0 01-3.09-.37 12.49 12.49 0 01-4.11-2.2c-.24-.19-.47-.39-.7-.59l-.57-.53a29.35 29.35 0 01-4-5.14c-.59-.92-1.17-1.85-1.75-2.79-.07.33-.13.67-.2 1 .42.74.84 1.48 1.29 2.21a30.69 30.69 0 004 5.41 5.77 5.77 0 00.44.42 7.32 7.32 0 00.66.59 13.37 13.37 0 004.68 2.6 9.55 9.55 0 003.46.44 8.08 8.08 0 003.36-1 11.19 11.19 0 001.6-1.12 4.35 4.35 0 00.41-.34 22.7 22.7 0 002.92-3.21c1.37-1.77 2.56-3.65 3.82-5.45a17.85 17.85 0 014.35-4.79 4.65 4.65 0 013-.79 8.64 8.64 0 013.05 1 15.45 15.45 0 014.77 4.45c.38.48.74 1 1.11 1.47l.62.86c.72 1 1.45 2 2.24 3l.08.09.59.69a11.92 11.92 0 004.64 3.38 9.23 9.23 0 002.89.53c-.08-.35-.15-.65-.23-.95zm-.56-2a18.44 18.44 0 01-6.15-1.22l-1.18-.43c-1.1-.41-2.19-.85-3.29-1.27l-.88-.33a18.29 18.29 0 00-8.9-1.36 8 8 0 00-5 2.88c-1.29 1.48-2.28 3.12-3.47 4.55a13.84 13.84 0 01-1.43 1.53l-.29.25a9.77 9.77 0 01-2.53 1.58 13.31 13.31 0 01-5.37 1 24.43 24.43 0 01-10.8-2.66l-.89-.42-.76-.37c-1.16-.56-2.33-1.12-3.54-1.62a5.37 5.37 0 00-.56-.21l-.09.47.44.2c1.08.51 2.14 1.09 3.2 1.67l.72.39 1.14.59a31.39 31.39 0 005.36 2.19 20.53 20.53 0 005.78.8 13.52 13.52 0 005.79-1 10.79 10.79 0 002.87-1.88l.26-.24a14.26 14.26 0 001.43-1.59c1.22-1.53 2.17-3.2 3.34-4.63a7.53 7.53 0 014.54-2.86 14.45 14.45 0 015.59.19 24.11 24.11 0 013.08.91l.88.33 1.41.59c.86.36 1.72.74 2.6 1.09l1.46.56c.43.15.86.3 1.3.43a16.86 16.86 0 004.18.71 9.23 9.23 0 01-.22-.87z" style="transform-origin:510.195px 168.271px" class="animable" fill="#fff" id="eluvniqf6tgo"/><path d="M502.1 116.46c-21.62 5.8-37.76 15.54-43.23 19.66-3.57 2.7-22.84 21.45-27.07 26.77-2.07 2.61 16.17 18.43 18.68 15.9 3.42-3.42 23.95-28.79 24.24-29.11 1.14-1.24 24.25-20.92 29.12-24.68 8.16-6.29 7.86-11.11-1.74-8.54z" style="transform-origin:470.644px 147.409px" class="animable" fill="#d3766a" id="el2h2zuwp3vz6"/><path d="M408.84 187.4a1.27 1.27 0 001.17.24c-.46 2.06-.32 3.82 1.12 4.47a2.34 2.34 0 002.56-.6 1.78 1.78 0 001.31 2.09c1.69.47 4.37-2.48 6.71-5.7-1.25 2.46-1.87 4.7-.36 5.19 4 1.27 8.46-6.5 12.21-11.33a20 20 0 014-4 4.63 4.63 0 01.75-.41 1.54 1.54 0 011.81.08c.82.78-.38 3.1-1.63 4.33-2.36 2.33-3.3 7.35-1.86 8.85 2.11 2.2 6.83-3.86 9-5.56 2.9-2.28 5.84-8.44 6.15-8.79 0 0-.6-1.18-2.22-3.94-3.08-5.25-8.21-13.07-11.94-14.19a89.4 89.4 0 00-21.91 10.78c-3.39 2.34-10.34 16.09-6.87 18.49z" style="transform-origin:429.837px 175.89px" class="animable" fill="#d3766a" id="elud6kcxcnwg9"/><path d="M430 176.19a15.09 15.09 0 00-5 4.79c-1.82 2.66-2.24 4.45-3.54 7.25a.07.07 0 00.12.05c.62-1.33 2.88-5.67 3.62-6.89a14.35 14.35 0 014.87-5.16s-.07-.05-.07-.04z" style="transform-origin:425.765px 182.245px" class="animable" fill="#263238" id="elgpk89akfyr"/><path d="M425.8 172.62a33.13 33.13 0 00-5.69 5.22c-2.08 2.41-3.24 5.44-4.4 8.37-.7 1.76-1.36 3.53-2 5.33 0 .07.09.13.12.05q1.74-4.51 3.75-8.92a22.71 22.71 0 015.16-7.24c1.25-1.16 1.74-1.71 3.07-2.77l-.01-.04z" style="transform-origin:419.76px 182.124px" class="animable" fill="#263238" id="elpjd5a0pms7"/><path d="M421.91 169.39c-2.3 1.54-4.37 2.85-6 5.1a34.29 34.29 0 00-4.08 8.13c-.62 1.63-1.18 3.28-1.72 4.94 0 .06.09.11.11 0a90.57 90.57 0 014.56-10.74 14.18 14.18 0 012.9-4 31.6 31.6 0 014.28-3.44s-.04.01-.05.01z" style="transform-origin:416.035px 178.503px" class="animable" fill="#263238" id="elkb6cuh3ssbk"/><path d="M421.31 193.09a1.46 1.46 0 01-.73-.74 2 2 0 01-.09-1 8.15 8.15 0 01.6-2c.13-.33.27-.66.37-1v-.15c0-.07-.08-.1-.12-.09s-.09.06-.12.08h-.05l-.16.22-.3.45c-.39.59-.8 1.18-1.23 1.74a8.49 8.49 0 01-3.09 2.76 2.07 2.07 0 01-1.89-.12 1.29 1.29 0 01-.6-1.6l.26-.75-.59.54a2.41 2.41 0 01-1.62.67 1.55 1.55 0 01-1.45-.8 4.11 4.11 0 01-.44-1.79 5.51 5.51 0 01.19-1.86l.13-.44-.43.19a1.19 1.19 0 01-1.09-.23 1.54 1.54 0 01-.64-1 7.82 7.82 0 01-.05-2.69 20.68 20.68 0 011.53-5.18 31.57 31.57 0 016-9.37 29.34 29.34 0 00-6.31 9.13 20.33 20.33 0 00-1.56 5.37 8.22 8.22 0 000 2.84 2.6 2.6 0 00.27.7 1.62 1.62 0 00.53.57 1.57 1.57 0 001.52.27l-.3-.26a6 6 0 00-.21 2 4.47 4.47 0 00.51 2 1.82 1.82 0 00.77.76 2.51 2.51 0 001 .24 2.88 2.88 0 001.9-.81l-.32-.2a1.71 1.71 0 000 1.18 1.67 1.67 0 00.77.88 2.45 2.45 0 001.1.34 2.66 2.66 0 001.12-.21 9 9 0 003.17-2.93c.42-.58.82-1.18 1.2-1.78l.29-.45c.07-.15.29-.33.07-.28-.08.33-.22.67-.33 1a8.17 8.17 0 00-.54 2.08 2 2 0 00.14 1.06 1.41 1.41 0 00.82.66z" style="transform-origin:414.583px 181.436px" class="animable" fill="#263238" id="elwwnn7isng2n"/><path d="M472.18 125l20.11 12.47a134.94 134.94 0 0017.22-15c7.12-7.74-1.7-9.81-15.22-5.45S472.18 125 472.18 125z" style="transform-origin:492.109px 126.121px" class="animable" fill="#ffc727" id="elklw8mqq8msh"/><path d="M477.89 123.26c4.46 2.51 8.74 5.33 13 8.24 1.19.82 2.37 1.67 3.52 2.55-2.2-1.3-4.34-2.69-6.49-4.07s-4.31-2.78-6.43-4.22c-1.2-.82-2.39-1.63-3.57-2.47-.12.01-.08-.07-.03-.03z" style="transform-origin:486.126px 128.649px" class="animable" fill="#263238" id="elf8e67vqcnzd"/><path d="M502.3 130.64c.07 0 .05-.12 0-.08-1 .56-1.93 1.16-2.88 1.77 1.74-1.51 3.42-3.09 5.08-4.7.07-.07 0-.19-.11-.12-2.21 1.74-4.42 3.48-6.58 5.3-1.06.89-5.34 4.53-5.48 4.56a11.77 11.77 0 01-1.16-.67c-.09 0-.17.08-.09.13.33.18 1.17.89 1.38.93a46.56 46.56 0 004.95-3.72l1.15-1c1.27-.73 2.5-1.56 3.74-2.4z" style="transform-origin:497.788px 132.624px" class="animable" fill="#263238" id="el6reqykp8hsn"/><path d="M516.45 124.08c-3.15.54-8.48-3.47-11.3-7a61.83 61.83 0 01-.58-6.59c-.18-2.11-.44-4.46-.82-6.59l13.92.83a34.61 34.61 0 00.19 8.39 4.32 4.32 0 00.25.86v.14c.62 1.65 2.78 9.19-1.66 9.96z" style="transform-origin:511.466px 114.015px" class="animable" fill="#d3766a" id="el4gn4gva3n5f"/><path d="M517.67 104.76s-.06.6-.11 1.54c-2.18 4.2-6.24 9.51-12.66 8.89-.08-1.19-.19-2.84-.33-4.66-.19-2.11-.43-4.46-.83-6.59z" style="transform-origin:510.705px 109.59px" class="animable" fill="#263238" id="eljnvt9fsv7c"/><path d="M517 85.56c2.33 4.45 2.41 18.56-.38 22.24-4 5.32-11.93 7.24-16.78 2.1s-4.47-23.38-1.24-26.85c4.77-5.11 14.97-4.05 18.4 2.51z" style="transform-origin:507.456px 96.3705px" class="animable" fill="#d3766a" id="elfpt4geku3wi"/><path d="M504.77 96.2s.07 0 .07.08c0 1 .12 2 1 2.35v.05c-1.08-.14-1.25-1.59-1.07-2.48z" style="transform-origin:505.274px 97.4406px" class="animable" fill="#263238" id="els8m28vz9e6"/><path d="M505.61 95.19c1.52-.13 1.67 2.94.26 3.06s-1.54-2.95-.26-3.06z" style="transform-origin:505.785px 96.7197px" class="animable" fill="#263238" id="el8ztggc6q2xh"/><path d="M499.56 96.67s-.08 0-.07.09c.1.94.05 2-.79 2.42 0 0 0 .06 0 0 1.05-.18 1.1-1.63.86-2.51z" style="transform-origin:499.189px 97.9383px" class="animable" fill="#263238" id="elyfn0macw7m"/><path d="M498.64 95.74c-1.53 0-1.44 3.06 0 3.07s1.28-3.06 0-3.07z" style="transform-origin:498.593px 97.275px" class="animable" fill="#263238" id="elutztiv5eoca"/><path d="M506.75 93.73a9.92 9.92 0 01-1.21-.36 2 2 0 01-1.16-.6.65.65 0 01.06-.79 1.6 1.6 0 011.61-.24 2.35 2.35 0 011.41 1 .69.69 0 01-.71.99z" style="transform-origin:505.903px 92.6793px" class="animable" fill="#263238" id="elrqtbdmu9mel"/><path d="M497.35 94.28a11.87 11.87 0 001.19-.4 2 2 0 001.14-.64.66.66 0 00-.09-.79 1.62 1.62 0 00-1.62-.19 2.36 2.36 0 00-1.38 1 .69.69 0 00.76 1.02z" style="transform-origin:498.133px 93.2127px" class="animable" fill="#263238" id="el4w4kwbcx24w"/><path d="M506.55 105c-.21.23-.43.55-.77.6a2.61 2.61 0 01-1-.19 1.27 1.27 0 001.23.45 1 1 0 00.71-.87c-.06.01-.14.01-.17.01z" style="transform-origin:505.75px 105.437px" class="animable" fill="#263238" id="el5haqy4pcywv"/><path d="M505.41 102.21a3.21 3.21 0 01-2.08 1.54 3.78 3.78 0 01-1.16.11h-.43a.25.25 0 01-.21-.21.31.31 0 010-.1v-.08c-.06-.73 0-1.85 0-1.85-.26.15-1.6.83-1.59.45a48.72 48.72 0 01.77-9.85c0-.1.18-.09.17 0 .09 3-.36 6.09-.32 9.15a6.26 6.26 0 011.51-.54c.1 0-.07 2.16 0 2.48a4.48 4.48 0 003.29-1.2c.03-.04.11.02.05.1z" style="transform-origin:502.679px 98.0078px" class="animable" fill="#263238" id="elpp7d4ycgpl"/><path d="M502.58 103.47a3.83 3.83 0 001.59 1.11 1.74 1.74 0 001.06 0c.74-.24.73-.93.56-1.52a4.4 4.4 0 00-.38-.9 5 5 0 01-2.83 1.31z" style="transform-origin:504.232px 103.411px" class="animable" fill="#263238" id="elzkb1y2bmfy"/><path d="M504.17 104.58a1.74 1.74 0 001.06 0c.74-.24.73-.93.56-1.52a1.78 1.78 0 00-1.62 1.52z" style="transform-origin:505.027px 103.861px" class="animable" fill="#ff9cbd" id="elcxu7ci7zeg"/><path d="M495.57 89.54c5.45 2.84 11.71-3.22 11.71-3.22a5.52 5.52 0 006 2.79s2 8.41 4.27 8.12c3.42-.44 3.07-12.2 1.71-14.35s-4.33-2.39-4.33-2.39a5.64 5.64 0 00-2.75-3.1c-2.55-1.51-10.33 1.88-10.33 1.88a7.65 7.65 0 00-2.41-2.54 2.13 2.13 0 00-3 .66 5.1 5.1 0 011.08 2c.7 2.44-1.34 2.69-1.59.42a3.52 3.52 0 01.51-2.42c-1.19-1.36-2.89-1.64-3.79-.73-1.65 1.66-1.65 10.52 2.92 12.88z" style="transform-origin:505.939px 86.6846px" class="animable" fill="#263238" id="els1x9wz58t9j"/><path d="M515.68 97.48s2.36-4.94 4.55-4.17.94 7.57-1.27 8.84a2.43 2.43 0 01-3.43-.75z" style="transform-origin:518.452px 97.896px" class="animable" fill="#d3766a" id="el9yapwgy577r"/><path d="M519.82 95.25v.06a6.1 6.1 0 00-2.5 4.32 1.34 1.34 0 011.92-.7.05.05 0 010 .1 1.51 1.51 0 00-1.54.79 7.17 7.17 0 00-.56 1.44c0 .16-.33.13-.3-.05-.39-2.15.75-5.37 2.98-5.96z" style="transform-origin:518.292px 98.3071px" class="animable" fill="#263238" id="el1t6qebbkw6"/><path d="M633.79 112.73L630 64.11a8 8 0 00.59 2.41 8.65 8.65 0 001.49 2.34c4.7 5.41 17.16 8.37 37.14 8.83l3.78 48.62c-20-.46-32.45-3.43-37.15-8.83a9.19 9.19 0 01-1.48-2.34 7.51 7.51 0 01-.58-2.41z" style="transform-origin:651.5px 95.21px" class="animable" fill="#ffc727" id="elcgaj3h1ctvu"/><g style="transform-origin:651.5px 95.21px" class="animable" opacity=".1" id="ely4ly0uy8t4"><path d="M633.79 112.73L630 64.11a8 8 0 00.59 2.41 8.65 8.65 0 001.49 2.34c4.7 5.41 17.16 8.37 37.14 8.83l3.78 48.62c-20-.46-32.45-3.43-37.15-8.83a9.19 9.19 0 01-1.48-2.34 7.51 7.51 0 01-.58-2.41z" class="animable" style="transform-origin:651.5px 95.21px" id="elfjynv7xj91b"/></g><path d="M634.27 105.74a15.46 15.46 0 01-.24 3.56 15.2 15.2 0 00-.24 3.43L630 64.11a15.71 15.71 0 01.24-3.42 16.11 16.11 0 00.25-3.56z" style="transform-origin:632.138px 84.93px" class="animable" fill="#ffc727" id="el9ojsgd31xg"/><g style="transform-origin:632.138px 84.93px" class="animable" opacity=".4" id="elb5jwu9ddhbs"><path d="M634.27 105.74a15.46 15.46 0 01-.24 3.56 15.2 15.2 0 00-.24 3.43L630 64.11a15.71 15.71 0 01.24-3.42 16.11 16.11 0 00.25-3.56z" class="animable" style="transform-origin:632.138px 84.93px" id="elmusbtmo8gv"/></g><path d="M630.5 57.13l3.77 48.61a8 8 0 00-.71-2.75 9.51 9.51 0 00-1.48-2.27c-4.88-5.62-17.52-8.29-38.44-8.13L589.86 44c20.92-.17 33.56 2.5 38.44 8.12a9.37 9.37 0 011.48 2.28 8 8 0 01.72 2.73z" style="transform-origin:612.065px 74.8662px" class="animable" fill="#ffc727" id="eljxknruetm5"/></g><g id="freepik--speech-bubble--inject-69" class="animable" style="transform-origin:526.094px 49.3206px;animation:1s 1 forwards cubic-bezier(.36,-.01,.5,1.38) fadeIn;animation-delay:0s"><path d="M570.57 66.36a20.64 20.64 0 01-34.49 13.06l-10.33 1.51 5.17-8.93a20.65 20.65 0 1139.65-5.64z" style="transform-origin:548.217px 64.1975px" class="animable" fill="#fff" id="elyz34esyom9"/><path d="M570.57 66.36a20.81 20.81 0 01-4.16 10.46 22.72 22.72 0 01-1.88 2.18 22.44 22.44 0 01-2.17 1.84 20.29 20.29 0 01-5 2.78 20.87 20.87 0 01-5.56 1.32 21.16 21.16 0 01-2.8.06 19.68 19.68 0 01-2.86-.3 20.87 20.87 0 01-10.21-5l.24.07-10.37 1.52-.75.12.38-.66 5.14-9v.36a20.87 20.87 0 011.27-18.41 21.17 21.17 0 016.47-6.88 20.85 20.85 0 0132.28 19.49zm0 0A20.4 20.4 0 00547.16 44a20.27 20.27 0 00-8.53 3.36 21.27 21.27 0 00-6.17 6.74 20.24 20.24 0 00-2.62 8.74 20.46 20.46 0 001.45 9l.07.19-.09.16-5.2 8.92-.37-.55 10.3-1.44h.14l.1.1a20.39 20.39 0 009.89 5.09 17.55 17.55 0 002.8.34 19.53 19.53 0 008.34-1.22 19.49 19.49 0 005-2.68 23.61 23.61 0 002.18-1.82 22.26 22.26 0 001.87-2.13 20.73 20.73 0 004.25-10.44z" style="transform-origin:547.874px 64.1788px" class="animable" fill="#263238" id="elvm3wq0jdk6b"/><path style="transform-origin:492.655px 25.33px" id="elwuc38qsmcx" class="animable" fill="#ffc727" d="M490.31 37.04l-8.82-8.93 2.96-2.93 5.16 5.22 10.7-16.78 3.51 2.24-13.51 21.18z"/></g><defs><filter id="active" height="200%"><feMorphology in="SourceAlpha" result="DILATED" operator="dilate" radius="2"/><feFlood flood-color="#32DFEC" flood-opacity="1" result="PINK"/><feComposite in="PINK" in2="DILATED" operator="in" result="OUTLINE"/><feMerge><feMergeNode in="OUTLINE"/><feMergeNode in="SourceGraphic"/></feMerge></filter><filter id="hover" height="200%"><feMorphology in="SourceAlpha" result="DILATED" operator="dilate" radius="2"/><feFlood flood-color="red" flood-opacity=".5" result="PINK"/><feComposite in="PINK" in2="DILATED" operator="in" result="OUTLINE"/><feMerge><feMergeNode in="OUTLINE"/><feMergeNode in="SourceGraphic"/></feMerge><feColorMatrix values="0 0 0 0 0 0 1 0 0 0 0 0 0 0 0 0 0 0 1 0"/></filter></defs></svg>